<svg width="71" height="64" viewBox="0 0 71 64" fill="none" xmlns="http://www.w3.org/2000/svg">
<path d="M0 0V21.3382V42.6763C0 54.4536 9.3578 64 20.9166 64V42.6618V21.3382C20.9166 9.5464 11.5446 0 0 0Z" fill="white"/>
<path d="M71 21.3382C71 9.5464 61.6422 0 50.0834 0C38.5388 0 29.1667 9.5464 29.1667 21.3382C29.1667 25.2205 30.1891 28.871 31.9641 32C30.1891 35.1435 29.1667 38.7795 29.1667 42.6618C29.1667 54.4391 38.5246 64 50.0834 64C61.628 64 71 54.4536 71 42.6618C71 38.7795 69.9775 35.129 68.2025 32C69.9775 28.8565 71 25.2205 71 21.3382ZM50.0407 50.5423C46.1925 50.5423 43.0685 47.3554 43.0685 43.4296C43.0685 39.5038 46.1925 36.3169 50.0407 36.3169C53.8889 36.3169 57.0129 39.5038 57.0129 43.4296C57.0129 47.3554 53.8889 50.5423 50.0407 50.5423ZM50.0834 28.1177C46.2352 28.1177 43.1111 24.9307 43.1111 21.005C43.1111 17.0792 46.2352 13.8923 50.0834 13.8923C53.9316 13.8923 57.0555 17.0792 57.0555 21.005C57.0555 24.9307 53.9458 28.1177 50.0834 28.1177Z" fill="white"/>
</svg>
