<svg width="280" height="247" viewBox="0 0 280 247" fill="none" xmlns="http://www.w3.org/2000/svg">
<path d="M279.35 133.143C279.609 133.345 279.798 133.624 279.889 133.939C279.981 134.255 279.97 134.591 279.86 134.9C279.749 135.209 279.543 135.476 279.272 135.661C279.001 135.847 278.678 135.942 278.35 135.933H229.06C211.06 135.933 196.93 122.463 195.65 121.103C195.47 120.923 161.42 78.2132 139.98 51.3332L122.91 29.9332C117.91 24.5532 110.28 18.3532 101.91 18.3532H95L100 12.0032C100.72 11.2232 111.78 0.903232 140 -0.186768C168.16 0.903232 179.23 11.2232 180 12.0032L185 18.3532L267 121.103C270.623 125.594 274.769 129.636 279.35 133.143Z" fill="url(#paint0_linear_112_602)"/>
<path d="M0.620145 2.60336C0.358469 2.40716 0.165561 2.13322 0.0690259 1.82073C-0.0275094 1.50824 -0.0227244 1.17323 0.0826963 0.863623C0.188117 0.55402 0.38877 0.285696 0.655942 0.097051C0.923115 -0.0915943 1.24311 -0.190893 1.57014 -0.186636H50.9101C68.9201 -0.186636 83.0001 13.2834 84.3201 14.6534C84.5001 14.8134 118.54 57.5334 140 84.4134L157.05 105.813C162.05 111.203 169.69 117.403 178.05 117.403H185.05L180 123.743C179.28 124.523 168.21 134.843 140 135.933C111.81 134.813 100.74 124.523 100 123.743L95.0001 117.403L13.0001 14.6534C9.37043 10.1559 5.21404 6.11027 0.620145 2.60336Z" fill="url(#paint1_linear_112_602)"/>
<path d="M95 117.403H102C110.34 117.403 118 111.203 123 105.813L140 84.4133C161.43 57.5333 195.48 14.8133 195.65 14.6533C196.93 13.2833 211.05 -0.186712 229.07 -0.186712H278.39C278.718 -0.19538 279.041 -0.100177 279.312 0.0853293C279.583 0.270835 279.789 0.537177 279.9 0.846393C280.01 1.15561 280.021 1.49192 279.929 1.80739C279.838 2.12286 279.649 2.40139 279.39 2.60329C274.793 6.10958 270.633 10.1552 267 14.6533L180 123.743C180 123.743 168.24 135.933 140 135.933C111.76 135.933 100.71 124.553 100 123.743C98.7 122.203 95 117.403 95 117.403Z" fill="url(#paint2_linear_112_602)"/>
<path d="M185 18.3532H178C169.65 18.3532 162 24.5532 157 29.9332L140 51.3332C118.56 78.2132 84.51 120.923 84.34 121.103C83.06 122.463 68.94 135.933 50.92 135.933H1.56998C1.24161 135.942 0.918892 135.847 0.64781 135.661C0.376729 135.476 0.17112 135.209 0.0602901 134.9C-0.05054 134.591 -0.0609358 134.255 0.0305844 133.939C0.122105 133.624 0.31087 133.345 0.569977 133.143C5.15225 129.649 9.30154 125.62 12.93 121.143L99.93 12.0432C99.93 12.0432 111.77 -0.186768 140 -0.186768C168.23 -0.186768 179.25 11.2032 179.95 12.0032C181.26 13.5432 185 18.3532 185 18.3532Z" fill="url(#paint3_linear_112_602)"/>
<path d="M10.11 199.173C8.57689 197.965 7.34919 196.413 6.52586 194.643C5.70252 192.873 5.30659 190.934 5.36997 188.983H17.37C17.3456 189.673 17.4737 190.359 17.745 190.994C18.0164 191.628 18.4244 192.195 18.94 192.653C19.9866 193.587 21.7333 194.053 24.18 194.053C25.5838 194.121 26.9807 193.817 28.23 193.173C28.6847 192.935 29.0641 192.576 29.3255 192.134C29.587 191.692 29.7201 191.186 29.71 190.673C29.7711 189.819 29.5226 188.97 29.01 188.283C28.3135 187.619 27.4308 187.183 26.48 187.033C25.26 186.743 23.48 186.423 21.1 186.033C16.1733 185.307 12.4666 183.91 9.97997 181.843C7.49331 179.777 6.24664 176.9 6.23997 173.213C6.15708 171.272 6.54696 169.339 7.37611 167.582C8.20525 165.824 9.44885 164.294 11 163.123C14.1533 160.69 18.42 159.477 23.8 159.483C26.8564 159.421 29.895 159.964 32.74 161.083C35.0881 162.008 37.1387 163.557 38.67 165.563C40.0944 167.51 40.8393 169.872 40.79 172.283H28.87C28.9089 171.633 28.7599 170.986 28.4407 170.419C28.1215 169.851 27.6456 169.388 27.07 169.083C25.9438 168.543 24.7092 168.266 23.46 168.273C22.1879 168.211 20.9257 168.524 19.83 169.173C19.4032 169.427 19.0514 169.789 18.8107 170.223C18.57 170.657 18.4489 171.147 18.46 171.643C18.4259 172.061 18.4895 172.481 18.6457 172.87C18.8019 173.258 19.0464 173.605 19.36 173.883C20.2272 174.481 21.2251 174.862 22.27 174.993C23.61 175.243 25.36 175.543 27.54 175.893C29.2574 176.11 30.9581 176.445 32.63 176.893C34.2817 177.337 35.8516 178.043 37.28 178.983C38.7395 179.961 39.9156 181.306 40.69 182.883C41.6378 184.94 42.0866 187.191 42 189.453C42.0444 191.934 41.3481 194.371 40 196.453C38.5012 198.628 36.3826 200.3 33.92 201.253C30.6637 202.496 27.1935 203.08 23.71 202.973C17.8033 203 13.27 201.733 10.11 199.173Z" fill="white"/>
<path d="M47.73 160.013H59.54V202.423H47.73V160.013Z" fill="white"/>
<path d="M67.57 160.013H85.37L91.02 183.013H91.48L96.95 160.013H114.76V202.423H103.35V188.753L103.47 172.283H103.06L95.79 202.423H86.71L79.44 172.283H78.91L79.09 188.873V202.423H67.57V160.013Z" fill="white"/>
<path d="M130.87 200.503C127.648 198.868 125.001 196.29 123.28 193.113C121.503 189.395 120.58 185.325 120.58 181.203C120.58 177.082 121.503 173.012 123.28 169.293C125.008 166.129 127.654 163.563 130.87 161.933C134.436 160.28 138.319 159.423 142.25 159.423C146.181 159.423 150.064 160.28 153.63 161.933C156.848 163.56 159.495 166.127 161.22 169.293C163.004 173.01 163.93 177.081 163.93 181.203C163.93 185.326 163.004 189.396 161.22 193.113C159.502 196.292 156.854 198.871 153.63 200.503C150.064 202.157 146.181 203.014 142.25 203.014C138.319 203.014 134.436 202.157 130.87 200.503ZM149.17 190.233C150.943 188.393 151.827 185.393 151.82 181.233C151.813 177.073 150.93 174.073 149.17 172.233C147.3 170.465 144.824 169.479 142.25 169.479C139.676 169.479 137.2 170.465 135.33 172.233C133.557 174.053 132.673 177.053 132.68 181.233C132.68 185.453 133.56 188.483 135.33 190.303C137.2 192.072 139.676 193.058 142.25 193.058C144.824 193.058 147.3 192.072 149.17 190.303V190.233Z" fill="white"/>
<path d="M169.74 160.013H183.65L197.44 186.013H197.91L197.5 173.093V160.013H208.85V202.423H195.75L182 177.353H181.54L181.83 188.693V202.423H169.83L169.74 160.013Z" fill="white"/>
<path d="M228.57 186.813L212.86 160.013H226.3L234.21 175.253H234.68L242.77 160.013H256.15L240.38 186.813V202.463H228.57V186.813Z" fill="white"/>
<path d="M260.22 160.013H272V202.423H260.22V160.013Z" fill="white"/>
<path d="M8.99997 210.703H13V233.813L15.31 231.363L25.89 220.683H30.89L20.89 230.683L31.38 246.453H26.69L19.69 235.923L18.12 233.373L13 238.293V246.423H8.99997V210.703Z" fill="white"/>
<path d="M38.7 245.223C36.8323 244.131 35.3187 242.523 34.34 240.593C33.2542 238.441 32.715 236.054 32.77 233.643C32.7114 231.222 33.2325 228.822 34.29 226.643C35.2531 224.696 36.7608 223.07 38.63 221.963C40.6282 220.802 42.9093 220.217 45.22 220.273C47.4925 220.217 49.7369 220.784 51.71 221.913C53.5529 223.008 55.0474 224.603 56.02 226.513C57.0313 228.698 57.5552 231.076 57.5552 233.483C57.5552 235.891 57.0313 238.269 56.02 240.453C55.0606 242.387 53.5732 244.01 51.73 245.133C49.7514 246.299 47.4859 246.888 45.19 246.833C42.9209 246.893 40.6781 246.337 38.7 245.223ZM51.27 240.813C52.79 239.087 53.55 236.67 53.55 233.563C53.7042 230.938 52.9131 228.345 51.32 226.253C50.5711 225.378 49.6323 224.685 48.5752 224.228C47.5181 223.771 46.3706 223.56 45.22 223.613C44.0887 223.582 42.9644 223.8 41.9272 224.253C40.8901 224.706 39.9657 225.382 39.22 226.233C37.66 227.983 36.89 230.443 36.89 233.613C36.7213 236.201 37.5037 238.762 39.09 240.813C39.8478 241.685 40.7927 242.374 41.8541 242.83C42.9155 243.285 44.0661 243.495 45.22 243.443C46.3606 243.483 47.4955 243.267 48.5422 242.812C49.5888 242.357 50.5207 241.674 51.27 240.813Z" fill="white"/>
<path d="M63.2 220.703H67L67.15 226.043H67.44C68.1272 224.263 69.3773 222.757 71 221.753C72.5304 220.875 74.2519 220.383 76.0154 220.32C77.7789 220.258 79.531 220.626 81.12 221.393C82.5683 222.168 83.7211 223.398 84.4 224.893C85.2785 226.905 85.6888 229.09 85.6 231.283V246.423H81.6V232.073C81.6 229.16 81.0633 227.027 79.99 225.673C79.37 224.973 78.5951 224.428 77.727 224.081C76.8589 223.734 75.9216 223.594 74.99 223.673C73.5423 223.652 72.1191 224.048 70.89 224.813C69.6841 225.587 68.7179 226.681 68.1 227.973C67.4207 229.386 67.0784 230.936 67.1 232.503V246.413H63.2V220.703Z" fill="white"/>
<path d="M94.66 223.983H89.76V220.703H94.66V216.343C94.6037 215.561 94.7236 214.775 95.0108 214.045C95.2981 213.315 95.7455 212.658 96.32 212.123C97.5867 211.128 99.1707 210.623 100.78 210.703H105.1V213.813H101.71C101.266 213.76 100.815 213.807 100.391 213.951C99.967 214.094 99.5806 214.331 99.26 214.643C98.8084 215.307 98.587 216.101 98.63 216.903V220.723H104.51V224.003H98.63V246.443H94.63L94.66 223.983Z" fill="white"/>
<path d="M112.44 245.223C110.605 244.13 109.133 242.519 108.21 240.593C107.171 238.427 106.657 236.046 106.71 233.643C106.655 231.228 107.158 228.833 108.18 226.643C109.095 224.723 110.542 223.105 112.35 221.983C114.391 220.866 116.686 220.294 119.012 220.324C121.339 220.354 123.618 220.984 125.63 222.153C127.411 223.374 128.765 225.123 129.5 227.153C130.3 229.44 130.567 231.878 130.28 234.283H110.63C110.533 236.792 111.371 239.247 112.98 241.173C113.749 241.982 114.683 242.616 115.718 243.034C116.753 243.451 117.865 243.642 118.98 243.593C120.712 243.649 122.42 243.178 123.88 242.243C124.516 241.841 125.065 241.315 125.495 240.697C125.924 240.078 126.225 239.38 126.38 238.643H130.2C129.992 240.237 129.329 241.737 128.29 242.963C127.205 244.23 125.834 245.221 124.29 245.853C122.596 246.545 120.779 246.885 118.95 246.853C116.672 246.917 114.42 246.353 112.44 245.223ZM113.25 225.573C111.76 227.082 110.866 229.078 110.73 231.193H126.41C126.34 228.473 125.58 226.523 124.11 225.333C122.58 224.121 120.671 223.488 118.72 223.543C117.72 223.505 116.721 223.665 115.783 224.013C114.844 224.362 113.983 224.892 113.25 225.573Z" fill="white"/>
<path d="M136.06 220.703H139.59L139.83 225.453H140.03C140.537 223.891 141.578 222.556 142.97 221.683C144.378 220.802 146.009 220.344 147.67 220.363C147.97 220.363 148.25 220.363 148.51 220.363L149.24 220.433V224.213L148.51 224.133H147.67C145.703 224.035 143.772 224.681 142.26 225.943C141.559 226.609 140.996 227.406 140.605 228.29C140.213 229.174 140.001 230.127 139.98 231.093V246.423H136.06V220.703Z" fill="white"/>
<path d="M156.89 245.223C155.052 244.13 153.578 242.52 152.65 240.593C151.611 238.427 151.097 236.046 151.15 233.643C151.095 231.228 151.598 228.833 152.62 226.643C153.535 224.723 154.982 223.105 156.79 221.983C158.831 220.866 161.126 220.294 163.452 220.324C165.779 220.354 168.058 220.984 170.07 222.153C171.854 223.371 173.208 225.121 173.94 227.153C174.74 229.44 175.007 231.878 174.72 234.283H155.07C154.972 236.794 155.814 239.25 157.43 241.173C158.198 241.984 159.131 242.619 160.166 243.037C161.202 243.454 162.315 243.644 163.43 243.593C165.162 243.649 166.87 243.178 168.33 242.243C168.967 241.842 169.517 241.317 169.947 240.698C170.376 240.08 170.677 239.381 170.83 238.643H174.65C174.446 240.238 173.783 241.739 172.74 242.963C171.657 244.233 170.285 245.224 168.74 245.853C167.046 246.545 165.229 246.885 163.4 246.853C161.121 246.919 158.869 246.355 156.89 245.223ZM157.7 225.573C156.207 227.08 155.308 229.076 155.17 231.193H170.85C170.79 228.473 170.023 226.52 168.55 225.333C167.02 224.121 165.111 223.488 163.16 223.543C162.161 223.507 161.165 223.667 160.228 224.015C159.291 224.364 158.432 224.893 157.7 225.573Z" fill="white"/>
<path d="M180.5 220.703H184.28L184.42 226.043H184.72C185.418 224.252 186.691 222.743 188.34 221.753C189.96 220.798 191.809 220.301 193.69 220.313C195.344 220.282 196.981 220.653 198.46 221.393C199.911 222.167 201.067 223.397 201.75 224.893C202.629 226.905 203.039 229.09 202.95 231.283V246.423H198.95V232.073C198.95 229.16 198.41 227.027 197.33 225.673C196.71 224.973 195.935 224.428 195.067 224.081C194.199 223.734 193.262 223.594 192.33 223.673C190.872 223.645 189.437 224.041 188.2 224.813C186.994 225.587 186.028 226.681 185.41 227.973C184.726 229.384 184.384 230.936 184.41 232.503V246.413H180.5V220.703Z" fill="white"/>
<path d="M214.19 245.203C212.342 244.088 210.848 242.472 209.88 240.543C208.866 238.365 208.34 235.991 208.34 233.588C208.34 231.185 208.866 228.812 209.88 226.633C210.857 224.695 212.371 223.077 214.24 221.973C216.071 220.988 218.101 220.428 220.178 220.335C222.256 220.241 224.328 220.617 226.24 221.433C227.777 222.142 229.108 223.229 230.11 224.593C231.101 225.981 231.68 227.621 231.78 229.323H228C227.882 228.494 227.601 227.696 227.171 226.977C226.742 226.257 226.174 225.631 225.5 225.133C224.107 224.16 222.439 223.655 220.74 223.693C219.569 223.633 218.4 223.85 217.328 224.326C216.256 224.802 215.311 225.524 214.57 226.433C213.023 228.509 212.245 231.057 212.37 233.643C212.37 236.743 213.12 239.163 214.64 240.893C215.393 241.747 216.326 242.423 217.373 242.871C218.419 243.319 219.552 243.528 220.69 243.483C222.533 243.558 224.339 242.957 225.77 241.793C227.082 240.689 227.914 239.119 228.09 237.413H232C231.889 239.178 231.302 240.879 230.302 242.337C229.302 243.795 227.926 244.955 226.32 245.693C224.569 246.503 222.658 246.906 220.73 246.873C218.437 246.934 216.173 246.355 214.19 245.203Z" fill="white"/>
<path d="M237.44 210.703H241.44V216.443H237.44V210.703ZM237.44 220.703H241.44V246.423H237.44V220.703Z" fill="white"/>
<path d="M250 243.393C248.06 241.073 247.09 237.79 247.09 233.543C247.09 229.297 248.06 226.02 250 223.713C250.93 222.591 252.105 221.697 253.435 221.099C254.764 220.501 256.213 220.215 257.67 220.263C259.712 220.204 261.725 220.758 263.45 221.853C264.993 222.843 266.164 224.317 266.78 226.043H267L267.15 220.703H271V246.423H267V241.033H266.75C266.132 242.767 264.962 244.249 263.42 245.253C261.702 246.367 259.686 246.932 257.64 246.873C256.185 246.917 254.74 246.625 253.415 246.022C252.091 245.419 250.922 244.519 250 243.393ZM263.35 242.333C264.515 241.552 265.448 240.471 266.05 239.203C266.666 237.928 266.984 236.53 266.98 235.113V231.973C266.985 230.557 266.667 229.158 266.05 227.883C265.448 226.613 264.516 225.528 263.35 224.743C262.053 223.908 260.532 223.489 258.99 223.543C257.911 223.507 256.839 223.719 255.855 224.16C254.87 224.602 254 225.264 253.31 226.093C251.87 227.793 251.15 230.277 251.15 233.543C251.15 236.773 251.87 239.253 253.31 240.963C253.994 241.801 254.863 242.47 255.848 242.916C256.834 243.361 257.909 243.573 258.99 243.533C260.518 243.579 262.024 243.161 263.31 242.333H263.35Z" fill="white"/>
<defs>
<linearGradient id="paint0_linear_112_602" x1="30.89" y1="-24.7068" x2="275.28" y2="118.323" gradientUnits="userSpaceOnUse">
<stop stop-color="#3A965D"/>
<stop offset="1" stop-color="#2586B6"/>
</linearGradient>
<linearGradient id="paint1_linear_112_602" x1="5.84015" y1="18.0934" x2="250.23" y2="161.133" gradientUnits="userSpaceOnUse">
<stop stop-color="#3A965D"/>
<stop offset="1" stop-color="#2586B6"/>
</linearGradient>
<linearGradient id="paint2_linear_112_602" x1="97.4" y1="168.513" x2="240.43" y2="-2.67671" gradientUnits="userSpaceOnUse">
<stop stop-color="#77B16A"/>
<stop offset="1" stop-color="#42B4E5"/>
</linearGradient>
<linearGradient id="paint3_linear_112_602" x1="48.51" y1="127.673" x2="191.54" y2="-43.5168" gradientUnits="userSpaceOnUse">
<stop stop-color="#77B16A"/>
<stop offset="1" stop-color="#42B4E5"/>
</linearGradient>
</defs>
</svg>
