<svg width="377" height="80" viewBox="0 0 377 80" fill="none" xmlns="http://www.w3.org/2000/svg">
<path d="M121.355 38.0743C117.893 41.0067 113.251 41.0474 111.947 41.0474C110.237 41.0474 104.739 40.9659 100.748 36.771C100.259 36.2412 99.7294 35.5496 99.363 34.8977L103.884 31.7618C105.146 33.6351 107.508 36.0789 112.803 36.0789C113.047 36.0789 114.065 36.0789 114.92 35.8753C115.531 35.7527 118.341 34.9791 118.341 32.2911C118.341 32.0061 118.301 31.2326 117.812 30.5806C116.834 29.2773 114.228 28.9109 112.803 28.5852L109.381 27.8112C107.916 27.4855 106.327 27.1598 105.024 26.4671C103.68 25.775 100.911 23.9419 100.911 19.7882C100.911 19.1368 100.992 17.2635 102.01 15.5526C103.313 13.3536 106.45 10.8284 112.273 10.8284C114.839 10.8284 119.889 11.2355 123.88 16.6523L119.441 19.9511C118.545 18.5256 116.509 15.6747 111.988 15.6747C111.703 15.6747 108.079 15.6345 106.897 17.8742C106.653 18.3221 106.572 18.7292 106.572 19.1775C106.572 19.6661 106.694 20.0732 106.938 20.4809C107.63 21.6615 109.219 22.0279 111.866 22.5984L114.839 23.2498C117.568 23.861 120.581 24.6753 122.495 26.9155C123.31 27.8112 124.165 29.1145 124.165 31.7618C124.165 34.3679 123.35 36.3639 121.355 38.0743Z" fill="white"/>
<path d="M128.237 19.9511H133.083V40.3141H128.237V19.9511ZM128.237 11.8467H133.083V16.7745H128.237V11.8467Z" fill="white"/>
<path d="M164.035 40.3142V27.8521C164.035 27.078 163.872 23.9014 160.614 23.9014C159.84 23.9014 158.088 24.1869 156.989 25.9788C156.052 27.4449 156.012 29.1147 156.012 30.7437V40.3142H151.165V28.9111C151.165 28.4627 151.125 28.0149 151.125 27.5671C151.125 27.16 151.125 25.7345 150.025 24.7162C149.211 23.9828 148.192 23.9421 147.826 23.9421C147.337 23.9421 146.278 24.0648 145.26 24.9197C143.264 26.6302 143.224 29.4811 143.224 31.7615V40.3142H138.336V19.9513H143.224L143.264 22.2317C143.59 21.7838 143.712 21.6617 143.916 21.4988C144.608 20.8475 146.807 19.3406 149.658 19.3406C151.98 19.3406 154.179 20.3991 155.319 22.4358C155.686 21.9874 156.093 21.4174 157.193 20.6841C158.048 20.1141 159.473 19.3406 161.876 19.3406C164.971 19.3406 167.741 20.6841 168.596 23.8607C168.84 24.7976 168.881 25.6118 168.881 27.4449V40.3142H164.035Z" fill="white"/>
<path d="M183.175 23.7389C182.727 23.7389 181.505 23.8203 180.406 24.5124C179.347 25.2051 177.921 26.8748 177.921 29.9293C177.921 30.9069 178.003 31.7618 178.329 32.6982C178.654 33.6758 180.08 36.4453 183.419 36.4453C187.126 36.4453 188.795 33.1873 188.673 29.97C188.591 26.7934 186.759 23.7389 183.175 23.7389ZM192.949 34.6127C192.135 36.6896 189.488 40.9252 183.419 40.9252C182.564 40.9252 180.813 40.8845 178.817 39.9883C176.7 39.052 172.831 36.201 172.831 30.0514C172.831 27.8519 173.442 26.2229 173.727 25.49C174.582 23.4539 177.188 19.3404 183.257 19.3404C184.03 19.3404 185.822 19.4218 187.736 20.2773C189.935 21.2137 193.723 23.9425 193.764 30.0514C193.764 30.7842 193.723 32.6982 192.949 34.6127Z" fill="white"/>
<path d="M210.704 40.3142V29.9289C210.704 28.3406 210.704 27.5671 210.501 26.793C209.931 24.4312 208.098 24.1055 207.121 24.1055C206.591 24.1055 205.573 24.1869 204.555 25.0419C203.089 26.2638 202.641 27.9742 202.641 31.4765V40.3142H197.713V19.9513H202.641V22.3538C202.722 22.2317 203.129 21.7024 203.536 21.2953C205.45 19.5034 208.22 19.3406 208.913 19.3406C211.927 19.3406 213.677 20.8876 214.329 21.8245C215.632 23.6978 215.51 26.2638 215.51 28.3406V40.3142H210.704Z" fill="white"/>
<path d="M232.003 37.7077C231.27 40.2324 230.211 44.5495 228.297 46.0971C227.035 47.1154 225.731 47.319 224.143 47.319C222.596 47.319 222.026 47.1968 221.251 47.034V42.7983C223.206 43.0431 224.306 42.7983 225.039 42.1877C225.65 41.6177 225.813 41.0065 225.894 40.7215L218.523 19.9514H223.776L228.338 35.1418L232.167 19.9514H237.175L232.003 37.7077Z" fill="white"/>
<path d="M240.188 19.9511H245.035V40.3141H240.188V19.9511ZM240.188 11.8467H245.035V16.7745H240.188V11.8467Z" fill="white"/>
<path d="M280.385 40.3142L272.728 26.793L268.045 32.1691V40.3142H262.709V11.5613H268.045V24.7568L279.57 11.5613H285.882L276.475 22.3945L286.534 40.3142H280.385Z" fill="white"/>
<path d="M299.198 16.9781H295.533L297.569 11.5612H303.597L299.198 16.9781ZM301.194 30.1735C300.38 30.5807 299.32 30.9878 297.325 31.3135C296.226 31.5176 295.045 31.5583 294.026 32.169C293.334 32.6173 292.845 33.3094 292.845 34.2056C292.845 35.427 293.741 36.6077 296.185 36.6077C298.873 36.6077 300.461 35.2234 300.909 34.2865C301.235 33.6346 301.194 33.0646 301.194 32.4132V30.1735ZM301.194 40.314L301.072 38.7257C300.298 39.3777 299.606 39.7034 299.198 39.8662C297.854 40.4774 296.592 40.8026 295.085 40.8026C294.108 40.8026 290.442 40.681 288.569 37.6667C288.243 37.1374 287.632 36.0377 287.673 34.4087C287.673 33.2687 287.958 30.9878 290.442 29.3181C292.112 28.1776 293.701 27.9333 295.574 27.5669C298.588 26.9562 299.687 26.712 301.194 26.1822C301.194 25.6529 301.153 25.001 300.909 24.5124C300.502 23.7389 299.484 23.1277 297.691 23.1277C295.818 23.1277 294.637 23.6977 294.108 24.3903C293.538 25.0829 293.578 25.8972 293.578 26.1822L288.61 25.8972C288.651 25.001 288.813 22.8427 290.809 21.2137C292.072 20.1547 293.986 19.3404 297.529 19.3404C300.868 19.3404 302.823 20.0325 304.085 20.9287C304.941 21.5394 305.389 22.232 305.552 22.5577C306.081 23.6162 306.081 25.0417 306.081 26.1822V37.0153C306.081 38.5629 306.163 39.0107 306.977 40.314H301.194Z" fill="white"/>
<path d="M316.384 28.2593C316.018 29.3997 316.018 30.4181 316.018 31.5987V40.3143H311.294V19.9514H316.018V22.8424C316.343 22.2318 316.751 21.6211 317.24 21.1732C318.869 19.5844 321.516 19.503 322.086 19.503H322.494V24.5127C321.475 24.5127 317.565 24.5127 316.384 28.2593Z" fill="white"/>
<path d="M334.873 23.7389C334.424 23.7389 333.203 23.8203 332.103 24.5124C331.045 25.2051 329.619 26.8748 329.619 29.9293C329.619 30.9069 329.701 31.7618 330.026 32.6982C330.352 33.6758 331.778 36.4453 335.117 36.4453C338.823 36.4453 340.493 33.1873 340.37 29.97C340.289 26.7934 338.456 23.7389 334.873 23.7389ZM344.647 34.6127C343.832 36.6896 341.185 40.9252 335.117 40.9252C334.262 40.9252 332.51 40.8845 330.515 39.9883C328.397 39.052 324.529 36.201 324.529 30.0514C324.529 27.8519 325.139 26.2229 325.424 25.49C326.279 23.4539 328.886 19.3404 334.954 19.3404C335.728 19.3404 337.52 19.4218 339.434 20.2773C341.633 21.2137 345.421 23.9425 345.461 30.0514C345.461 30.7842 345.421 32.6982 344.647 34.6127Z" fill="white"/>
<path d="M354.461 11.5612H349.493V40.314H354.461V11.5612Z" fill="white"/>
<path d="M370.996 37.7077C370.262 40.2324 369.204 44.5495 367.289 46.0971C366.027 47.1154 364.724 47.319 363.135 47.319C361.588 47.319 361.018 47.1968 360.244 47.034V42.7983C362.199 43.0431 363.298 42.7983 364.031 42.1877C364.642 41.6177 364.805 41.0065 364.887 40.7215L357.515 19.9514H362.769L367.33 35.1418L371.159 19.9514H376.168L370.996 37.7077Z" fill="white"/>
<path d="M111.034 67.1201C109.3 68.5889 106.974 68.609 106.321 68.609C105.464 68.609 102.709 68.5683 100.71 66.4671C100.465 66.2017 100.2 65.8548 100.017 65.5281L102.281 63.9577C102.913 64.8957 104.097 66.1197 106.749 66.1197C106.872 66.1197 107.382 66.1197 107.811 66.0182C108.116 65.9569 109.524 65.5688 109.524 64.2226C109.524 64.0799 109.504 63.6923 109.259 63.3656C108.769 62.7126 107.464 62.5291 106.749 62.3663L105.035 61.9782C104.301 61.8153 103.505 61.6514 102.852 61.3051C102.179 60.9583 100.792 60.0399 100.792 57.9588C100.792 57.6326 100.832 56.6935 101.343 55.8365C101.996 54.7351 103.566 53.4704 106.484 53.4704C107.77 53.4704 110.299 53.674 112.299 56.3874L110.075 58.0402C109.626 57.3264 108.606 55.8978 106.341 55.8978C106.198 55.8978 104.382 55.8777 103.791 56.9997C103.668 57.2244 103.628 57.4285 103.628 57.6526C103.628 57.898 103.689 58.1015 103.811 58.3056C104.158 58.8973 104.954 59.0807 106.28 59.3668L107.77 59.693C109.137 59.9991 110.647 60.4073 111.605 61.5293C112.013 61.9782 112.442 62.6312 112.442 63.9577C112.442 65.2632 112.034 66.263 111.034 67.1201Z" fill="white"/>
<path d="M122.644 68.242V66.0383L130.519 56.2452H123.317V53.8373H133.886V56.1225L126.316 65.8141H133.886V68.242H122.644Z" fill="white"/>
<path d="M150.045 56.4281L148.046 63.0594H152.025L150.045 56.4281ZM153.575 68.242L152.739 65.4266H147.332L146.496 68.242H143.598L148.475 53.8373H151.535L156.452 68.242H153.575Z" fill="white"/>
<path d="M176.141 68.242L172.305 61.468L169.96 64.1613V68.242H167.286V53.8373H169.96V60.448L175.733 53.8373H178.896L174.182 59.2647L179.222 68.242H176.141Z" fill="white"/>
<path d="M198.748 68.242L194.912 61.468L192.566 64.1613V68.242H189.893V53.8373H192.566V60.448L198.34 53.8373H201.502L196.789 59.2647L201.828 68.242H198.748Z" fill="white"/>
<path d="M222.09 57.8361C221.335 56.6121 220.192 55.9385 218.743 55.9385C217.845 55.9385 217.192 56.224 216.907 56.3673C215.887 56.9182 214.622 58.2649 214.622 60.9577C214.622 61.5086 214.642 64.1613 216.662 65.4873C217.54 66.0589 218.417 66.0996 218.784 66.0996C219.069 66.0996 219.722 66.079 220.437 65.7528C221.498 65.2632 222.885 64.0386 222.946 61.3252C222.967 60.1414 222.742 58.8766 222.09 57.8361ZM223.66 66.5485C223.334 66.8953 222.497 67.7318 221.212 68.2013C220.763 68.3642 219.927 68.609 218.703 68.609C216.662 68.609 215.111 67.9359 213.765 66.3851C212.418 64.8544 211.847 63.0594 211.847 61.0598C211.847 60.5908 211.867 59.4889 212.275 58.2649C213.214 55.3875 215.683 53.4698 218.764 53.4698C221.539 53.4698 223.191 54.9799 223.864 55.7545C224.62 56.6121 225.68 58.285 225.66 61.0397C225.66 61.9374 225.558 64.4875 223.66 66.5485Z" fill="white"/>
<path d="M237.269 68.242V53.8373H239.983V65.7935H245.696V68.242H237.269Z" fill="white"/>
<path d="M256.897 68.242V53.8373H259.611V65.7935H265.324V68.242H256.897Z" fill="white"/>
<path d="M281.912 52.4288H280.096L281.177 49.9808H284.115L281.912 52.4288ZM276.443 68.2415V53.8368H286.686V56.2446H279.096V59.6311H286.054V61.957H279.096V65.8136H287.196V68.2415H276.443Z" fill="white"/>
<path d="M308.273 68.242L308.252 67.018C307.09 68.0988 305.906 68.609 304.294 68.609C303.417 68.609 301.417 68.4868 299.683 66.7933C298.847 65.9569 297.541 64.1613 297.541 61.1824C297.541 59.3462 298.092 57.4285 299.234 55.9797C299.887 55.1634 301.601 53.4704 304.518 53.4704C304.927 53.4704 305.845 53.5111 306.886 53.8987C307.824 54.2656 309.64 55.2247 310.578 57.714L308.008 58.7344C307.763 58.0402 307.008 55.8978 304.498 55.8978C304.009 55.8978 302.866 55.9797 301.907 56.9383C301.213 57.6526 300.479 58.8767 300.479 61.101C300.479 61.6921 300.479 63.8552 302.132 65.2426C302.846 65.8342 303.641 66.0589 304.56 66.0589C305.988 66.0589 307.253 65.3652 307.803 64.0185C307.926 63.733 308.028 63.3857 308.11 62.7332H304.518V60.3661H310.578V68.242H308.273Z" fill="white"/>
<path d="M325.188 53.8373H322.535V68.242H325.188V53.8373Z" fill="white"/>
<path d="M348.855 65.3039C348.386 66.7521 346.733 68.609 343.204 68.609C341.51 68.609 339.816 68.2008 338.633 66.8954C338.449 66.7114 337.96 66.1197 337.715 65.3446C337.491 64.6102 337.491 63.9366 337.491 62.407V53.8373H340.205V62.6925C340.205 63.549 340.205 63.8552 340.347 64.2834C340.612 65.1405 341.388 65.9976 343.306 65.9976C343.652 65.9976 345.631 65.9976 346.223 64.3654C346.386 63.8959 346.407 63.5083 346.407 62.5492V53.8373H349.1V62.1416C349.1 63.7944 349.12 64.4875 348.855 65.3039Z" fill="white"/>
<path d="M372.054 68.242L372.319 56.408L369.197 68.242H366.77L363.648 56.408L363.913 68.242H361.281V53.8373H365.198L368.014 64.5288L370.788 53.8373H374.686V68.242H372.054Z" fill="white"/>
<path d="M39.9904 0C17.9398 0 0 17.9398 0 39.9904C0 62.0416 17.9398 79.9814 39.9904 79.9814C62.0416 79.9814 79.9814 62.0416 79.9814 39.9904C79.9814 17.9398 62.0416 0 39.9904 0ZM39.9904 4.28482C59.7105 4.28482 75.6966 20.271 75.6966 39.9904C75.6966 59.7105 59.7105 75.6966 39.9904 75.6966C20.271 75.6966 4.28482 59.7105 4.28482 39.9904C4.28482 20.271 20.271 4.28482 39.9904 4.28482Z" fill="white"/>
<path d="M28.4081 19.6788C33.2592 19.6788 37.2062 23.6257 37.2062 28.4768C37.2062 33.3279 33.2592 37.2749 28.4081 37.2749C23.557 37.2749 19.61 33.3279 19.61 28.4768C19.61 23.6257 23.557 19.6788 28.4081 19.6788ZM28.4081 23.9636C25.9157 23.9636 23.8949 25.9844 23.8949 28.4768C23.8949 30.9693 25.9157 32.9901 28.4081 32.9901C30.9005 32.9901 32.9213 30.9693 32.9213 28.4768C32.9213 25.9844 30.9005 23.9636 28.4081 23.9636ZM74.7005 30.5373H35.1351C33.9968 30.5373 33.0747 29.6152 33.0747 28.4774C33.0747 27.339 33.9968 26.4169 35.1351 26.4169H74.7005C75.8383 26.4169 76.7609 27.339 76.7609 28.4774C76.7609 29.6152 75.8383 30.5373 74.7005 30.5373Z" fill="white"/>
<path d="M43.7788 54.3534H6.54462C5.53792 54.3534 4.72156 53.5375 4.72156 52.5308C4.72156 51.5236 5.53792 50.7078 6.54462 50.7078H43.7788C44.7855 50.7078 45.6013 51.5236 45.6013 52.5308C45.6013 53.5375 44.7855 54.3534 43.7788 54.3534Z" fill="white"/>
<path d="M50.4566 43.5573C45.6055 43.5573 41.6586 47.5037 41.6586 52.3553C41.6586 57.2059 45.6055 61.1528 50.4566 61.1528C55.3077 61.1528 59.2547 57.2059 59.2547 52.3553C59.2547 47.5037 55.3077 43.5573 50.4566 43.5573ZM50.4566 47.8421C52.9491 47.8421 54.9699 49.8623 54.9699 52.3553C54.9699 54.8477 52.9491 56.8685 50.4566 56.8685C47.9642 56.8685 45.9434 54.8477 45.9434 52.3553C45.9434 49.8623 47.9642 47.8421 50.4566 47.8421Z" fill="white"/>
</svg>
