<svg width="100" height="100" viewBox="0 0 100 100" fill="none" xmlns="http://www.w3.org/2000/svg">
<path d="M49.4931 28.3796C50.7569 26.4456 51.9822 24.6607 53.1109 23.1148C51.9455 22.9641 50.7598 22.8781 49.5533 22.8781C34.3653 22.8781 22.0531 35.1903 22.0531 50.3782C22.0531 59.8739 26.866 68.2453 34.1852 73.1866C34.8132 71.2971 35.4648 69.4951 36.1209 67.796C30.9116 63.7727 27.5532 57.4694 27.5532 50.3782C27.5532 38.248 37.3707 28.4123 49.4931 28.3796Z" fill="white"/>
<path d="M49.5533 72.3783C48.2489 72.3783 46.9733 72.2583 45.7312 72.0406C44.4272 74.0393 43.3598 75.7467 42.5986 76.9893C44.8202 77.5683 47.1503 77.8783 49.5533 77.8783C64.7412 77.8783 77.0535 65.5662 77.0535 50.3782C77.0535 42.9432 74.0978 36.2022 69.3038 31.2524C67.9243 32.5962 66.6369 33.9046 65.4353 35.1633C69.2222 39.1151 71.5534 44.4727 71.5534 50.3782C71.5534 62.5285 61.7037 72.3783 49.5533 72.3783Z" fill="white"/>
<path d="M61.7236 49.208C61.7236 49.208 59.2662 47.5697 54.2342 46.0484C54.2342 46.0484 63.4789 33.4101 77.6386 21.9419C77.6386 21.9419 64.9592 19.0163 58.447 19.0163C55.0533 21.5908 44.1703 38.442 39.1384 49.676C39.1384 49.676 43.3512 51.6655 44.6384 52.9527C44.6384 52.9527 38.6703 63.0166 34.5746 76.5911L30.9468 74.0167L33.4043 86.538L44.6969 79.6337L40.0746 78.4635C40.0746 78.4635 50.548 60.3835 61.7236 49.208Z" fill="white"/>
<path d="M40.8168 95.4495L39.8942 95.2376C39.5048 95.1485 39.2213 94.9942 39.0429 94.7741C38.8647 94.554 38.8098 94.2942 38.8783 93.9952C38.95 93.6826 39.117 93.4611 39.3792 93.3315C39.6412 93.2012 39.9669 93.1807 40.356 93.2698L41.2683 93.479L40.8168 95.4495ZM40.124 98.4727L39.4931 98.3288C38.6731 98.1401 38.3258 97.772 38.4515 97.2228C38.5191 96.9272 38.6724 96.7181 38.911 96.5952C39.1492 96.4726 39.4423 96.4513 39.7896 96.5309L40.5301 96.7002L40.124 98.4727ZM38.2191 92.1076C37.6369 92.3969 37.2677 92.8838 37.1107 93.5687C37.0031 94.0377 37.071 94.4718 37.314 94.8715C37.5574 95.2713 37.9372 95.5647 38.4536 95.7526L38.4488 95.7739C37.998 95.7944 37.6013 95.9255 37.2592 96.1647C36.917 96.4046 36.6997 96.7263 36.6074 97.1295C36.4798 97.6855 36.6054 98.1675 36.9835 98.5762C37.3617 98.985 37.9682 99.2846 38.8019 99.4759L41.5234 100.1L43.2365 92.6239L40.3643 91.9657C39.5164 91.7716 38.8012 91.8189 38.2191 92.1076Z" fill="white"/>
<path d="M35.2535 90.5017L33.4944 94.3607C33.2579 94.8797 33.0041 95.4927 32.7326 96.2004L32.6887 96.1798C32.8263 95.6121 32.9013 95.2541 32.9133 95.1068L33.3898 89.6521L32.1049 89.0666L28.307 93.0661C28.1565 93.2244 27.9428 93.4995 27.6666 93.891L27.6275 93.8731C27.9151 93.3459 28.1616 92.8563 28.367 92.4058L30.2704 88.23L28.718 87.5223L25.5368 94.5012L27.7803 95.5235L31.0873 92.0472C31.3147 91.8058 31.5605 91.5124 31.8238 91.1661L31.8533 91.1791C31.7528 91.537 31.6838 91.9074 31.6465 92.2899L31.1867 97.0766L33.4885 98.1257L36.6698 91.1469L35.2535 90.5017Z" fill="white"/>
<path d="M23.8295 83.9706L23.0218 85.1158L25.3685 86.771L24.3571 88.2048L22.3076 86.7587L21.4999 87.9037L23.5493 89.3498L22.5661 90.7438L20.3634 89.1893L19.5526 90.3392L23.1668 92.8885L27.5876 86.6221L23.8295 83.9706Z" fill="white"/>
<path d="M10.1976 80.8899L11.381 82.2565L16.4393 79.9766C16.7112 79.8539 16.9453 79.7242 17.1421 79.5871L17.1631 79.6112C17.0078 79.7695 16.849 79.9752 16.6865 80.2289L13.6993 84.9327L14.9178 86.339L19.0058 79.3451L17.7242 77.8654L10.1976 80.8899Z" fill="white"/>
<path d="M10.4736 78.7808L14.6181 75.9922L14.9764 76.5249L16.0859 75.7782L14.4049 73.2803L13.2954 74.0262L13.6537 74.5591L9.5095 77.3478L9.15092 76.815L8.04184 77.5617L9.72278 80.0596L10.8322 79.3136L10.4736 78.7808Z" fill="white"/>
<path d="M11.7893 68.5125L10.5527 69.1717L11.8884 71.6779L6.35669 74.6263L7.16926 76.1505L13.9375 72.5432L11.7893 68.5125Z" fill="white"/>
<path d="M3.58391 61.304C3.35287 61.2807 3.12552 61.2834 2.90237 61.3129L2.89309 61.2711C3.14948 61.1908 3.36554 61.101 3.54109 61.0016L5.8902 59.6573L6.30018 61.5769L3.58391 61.304ZM9.90307 63.5462L9.82772 63.5748L9.45566 61.8326L7.67433 61.6609L7.10447 58.9933L8.65896 58.1036L8.26574 56.2625L1.33521 60.5319L1.76305 62.5351L9.66245 63.6374L8.59279 64.0429L9.60008 66.6982L3.7392 68.9212L4.35187 70.537L11.523 67.8166L9.90307 63.5462Z" fill="white"/>
<path d="M8.1735 54.1544L3.93288 54.2233C3.36242 54.2325 2.69975 54.2665 1.94476 54.3248L1.94376 54.2768C2.51602 54.1571 2.87121 54.0711 3.00933 54.0191L8.14027 52.1064L8.11731 50.6945L2.8742 48.9823C2.66652 48.9145 2.3264 48.8397 1.85434 48.7582L1.85364 48.7153C2.45324 48.7485 3.00105 48.7609 3.49646 48.753L8.08468 48.6786L8.05694 46.9727L0.388672 47.0971L0.428492 49.5621L4.98847 51.0555C5.30424 51.1574 5.6749 51.253 6.10065 51.3424L6.10105 51.3744C5.73488 51.4374 5.37081 51.5344 5.00903 51.6651L0.489071 53.3055L0.530289 55.835L8.19885 55.7106L8.1735 54.1544Z" fill="white"/>
<path d="M2.86635 41.0892C2.98811 40.5136 3.30008 40.1059 3.80268 39.8657C4.30527 39.6256 4.94539 39.5879 5.72324 39.7522C6.46994 39.9099 7.01745 40.204 7.36545 40.6346C7.71376 41.0652 7.82623 41.5719 7.70308 42.1544C7.58382 42.7194 7.27114 43.1308 6.76475 43.3883C6.25877 43.6461 5.63372 43.6962 4.8908 43.5391C4.15817 43.3845 3.60617 43.0859 3.23521 42.6429C2.86395 42.2003 2.7412 41.6823 2.86635 41.0892ZM4.60417 45.3373C5.72733 45.5745 6.71026 45.4284 7.55268 44.8995C8.39489 44.3704 8.92982 43.5687 9.15637 42.4942C9.3892 41.3916 9.21705 40.4213 8.6398 39.5835C8.06236 38.7456 7.18401 38.2022 6.00467 37.9529C4.85727 37.7106 3.86296 37.8459 3.02204 38.3589C2.18142 38.872 1.64799 39.6641 1.42164 40.735C1.18232 41.8689 1.35617 42.8565 1.9438 43.6986C2.53112 44.5406 3.41795 45.0867 4.60417 45.3373Z" fill="white"/>
<path d="M4.05221 35.6374C4.261 35.8918 4.55141 36.0916 4.92307 36.237C5.39782 36.4233 5.8566 36.4448 6.29922 36.3022C6.74183 36.1595 7.18854 35.8551 7.63934 35.3881C7.81459 35.2044 7.98255 35.0346 8.14293 34.8791C8.30341 34.7238 8.4574 34.5955 8.60411 34.494C8.75112 34.3925 8.89483 34.3237 9.03575 34.2866C9.17627 34.25 9.31648 34.2589 9.45601 34.3134C9.5589 34.3538 9.64463 34.4163 9.71319 34.5002C9.78136 34.5845 9.82836 34.6901 9.85341 34.8167C9.87836 34.9431 9.87986 35.0892 9.8572 35.2545C9.83455 35.4201 9.78345 35.6038 9.70391 35.8064C9.56878 36.1517 9.37447 36.4698 9.12038 36.7613C8.86668 37.0523 8.56199 37.2947 8.2064 37.4887L9.80022 38.1131C10.0343 37.906 10.2538 37.6385 10.4588 37.3112C10.6635 36.9833 10.8428 36.6241 10.9964 36.2322C11.1459 35.8503 11.2511 35.4732 11.3128 35.1012C11.3746 34.7289 11.3722 34.3805 11.306 34.0559C11.2398 33.7312 11.1009 33.4405 10.8894 33.1834C10.678 32.9263 10.3731 32.7199 9.97477 32.5639C9.68575 32.4507 9.41599 32.3948 9.16469 32.3959C8.91329 32.3969 8.67128 32.4456 8.43814 32.5419C8.20501 32.6386 7.97666 32.7741 7.75311 32.9489C7.52966 33.1234 7.30231 33.3301 7.07098 33.5691C6.90261 33.7442 6.74553 33.8989 6.59922 34.0332C6.45281 34.1674 6.31429 34.276 6.18435 34.359C6.05411 34.4419 5.92926 34.4964 5.81 34.5226C5.69064 34.5485 5.57138 34.5382 5.45171 34.4913C5.34233 34.4484 5.25451 34.3816 5.18874 34.2907C5.12297 34.1999 5.07836 34.0905 5.05571 33.9627C5.03275 33.8351 5.03345 33.6897 5.0571 33.527C5.08076 33.3637 5.12806 33.1909 5.19972 33.0082C5.25181 32.8756 5.31658 32.739 5.39443 32.5992C5.47227 32.4593 5.5611 32.3229 5.6612 32.1895C5.7613 32.0565 5.87028 31.9316 5.98854 31.8155C6.1068 31.6989 6.23126 31.5971 6.3609 31.5103L4.87197 30.9272C4.68415 31.1328 4.5113 31.3709 4.35431 31.6402C4.19692 31.9101 4.04543 32.2306 3.89972 32.6026C3.75151 32.9811 3.65181 33.3555 3.60042 33.7261C3.54932 34.0964 3.5596 34.4443 3.63126 34.769C3.70321 35.094 3.84343 35.3833 4.05221 35.6374Z" fill="white"/>
<path d="M13.0846 31.1452L9.49891 28.8804C9.01647 28.5757 8.44332 28.2414 7.77954 27.8767L7.80529 27.8361C8.3497 28.0491 8.69392 28.1719 8.83823 28.2037L14.1786 29.4133L14.9325 28.2195L11.4832 23.9155C11.3464 23.7447 11.1031 23.4961 10.7527 23.1695L10.7757 23.1331C11.2591 23.4893 11.7105 23.7996 12.1295 24.0643L16.0094 26.5149L16.9204 25.0722L10.4358 20.9767L9.11937 23.0615L12.1172 26.808C12.3253 27.0662 12.583 27.349 12.8902 27.6572L12.8731 27.6842C12.5323 27.5365 12.1748 27.4183 11.8004 27.3294L7.12026 26.2269L5.76917 28.3655L12.2536 32.4611L13.0846 31.1452Z" fill="white"/>
<path d="M13.2589 16.4181L12.6034 14.2235L12.524 15.5156L13.1947 17.4664L13.2589 16.4181Z" fill="white"/>
<path d="M17.9279 24.1163L21.0556 20.7442L20.0281 19.7911L18.075 21.8968L16.789 20.7041L18.4946 18.8648L17.4672 17.9121L15.7615 19.7514L14.5105 18.5912L16.3436 16.6148L15.3124 15.6583L12.3047 18.9012L17.9279 24.1163Z" fill="white"/>
<path d="M21.0059 15.2447L20.4221 15.7134L19.086 14.0496L19.6949 13.5607C20.3202 13.0585 20.843 13.0688 21.2627 13.5912C21.4636 13.8415 21.5431 14.123 21.5013 14.4353C21.4602 14.7428 21.2949 15.0126 21.0059 15.2447ZM23.0774 19.0208L21.239 16.7309L21.6017 16.4399C21.6854 16.3727 21.7763 16.3281 21.875 16.3062C21.9741 16.2839 22.0825 16.2794 22.2 16.2921C22.3179 16.3051 22.4454 16.3315 22.5833 16.372C22.7208 16.4125 22.8713 16.4632 23.0344 16.5242L25.2002 17.3162L26.747 16.0741L24.1974 15.2132C24.0654 15.1683 23.9252 15.1265 23.7775 15.0873C23.6297 15.0483 23.4829 15.0185 23.3382 14.9975C23.1935 14.9767 23.0543 14.9684 22.9207 14.9729C22.7869 14.9774 22.6646 15.0013 22.5531 15.0449L22.5397 15.0281C22.6957 14.8069 22.8154 14.5783 22.8983 14.3427C22.9811 14.1069 23.0239 13.8714 23.0269 13.6357C23.0297 13.4003 22.9923 13.1685 22.9145 12.9405C22.8366 12.7129 22.7139 12.4945 22.5466 12.286C21.6762 11.2016 20.515 11.2421 19.0638 12.4074L16.9286 14.122L21.7304 20.102L23.0774 19.0208Z" fill="white"/>
<path d="M28.4986 15.1141L26.4885 11.4101C26.2232 10.9212 26.0134 10.5647 25.8588 10.3402L25.8776 10.3298C26.0082 10.421 26.2225 10.5465 26.5198 10.7055L31.5965 13.4329L33.1287 12.6011L29.4702 5.86063L28.0368 6.63887L30.0599 10.3661C30.3098 10.8269 30.4898 11.129 30.5999 11.2719L30.5813 11.2819C30.3791 11.1564 30.1669 11.0344 29.9443 10.9157L25.0424 8.26382L23.4068 9.15144L27.0652 15.8924L28.4986 15.1141Z" fill="white"/>
<path d="M34.5082 6.14787C34.7125 5.60755 35.104 5.24688 35.6824 5.06554C36.244 4.88969 36.7524 4.96234 37.2077 5.2829C37.663 5.60376 38.0096 6.14348 38.2471 6.90216C38.4752 7.63031 38.4868 8.25157 38.2818 8.76614C38.0765 9.28041 37.69 9.62662 37.1217 9.80456C36.5704 9.97701 36.0585 9.90576 35.5864 9.59029C35.114 9.27522 34.7643 8.75516 34.5373 8.03041C34.3135 7.31564 34.3039 6.68819 34.5082 6.14787ZM34.6546 11.0172C35.5282 11.4927 36.4891 11.5664 37.5371 11.238C38.6123 10.9013 39.3737 10.2763 39.8219 9.36264C40.2699 8.44867 40.3138 7.41703 39.9538 6.26684C39.6031 5.14747 38.9983 4.34658 38.1395 3.86464C37.2804 3.3826 36.3287 3.30546 35.284 3.6325C34.1784 3.97871 33.4022 4.61404 32.9554 5.53829C32.5091 6.46294 32.4669 7.50376 32.8293 8.66055C33.1722 9.75626 33.7807 10.5417 34.6546 11.0172Z" fill="white"/>
<path d="M33.2195 3.44666C33.408 3.53508 33.6179 3.54337 33.8493 3.47061C34.0807 3.39836 34.2483 3.2749 34.3526 3.10035C34.4567 2.9255 34.4763 2.73459 34.4112 2.5272C34.3474 2.32281 34.2226 2.1782 34.0368 2.09207C33.8513 2.00674 33.6425 1.99985 33.4114 2.07221C33.1869 2.14287 33.0203 2.26692 32.9116 2.44447C32.8026 2.62251 32.7803 2.81343 32.8444 3.01772C32.9061 3.21522 33.0313 3.35814 33.2195 3.44666Z" fill="white"/>
<path d="M35.5631 2.71535C35.751 2.80248 35.9587 2.81036 36.1867 2.73871C36.4182 2.66635 36.5864 2.5415 36.6917 2.36496C36.797 2.18811 36.8179 1.99749 36.7538 1.7935C36.69 1.58911 36.5635 1.4448 36.3743 1.36007C36.1853 1.27543 35.9769 1.26895 35.7489 1.34021C35.521 1.41156 35.354 1.53492 35.2484 1.71017C35.1424 1.88541 35.1219 2.07663 35.187 2.28412C35.2497 2.48492 35.3753 2.62863 35.5631 2.71535Z" fill="white"/>
<path d="M43.7456 9.65509L43.2681 5.93124L43.2944 5.92775C43.4141 6.13174 43.4991 6.26268 43.5499 6.32096L46.1914 9.34142L48.1873 9.08533L48.1895 9.21697L51.2003 9.16797L51.1784 7.83124L50.5365 7.84152L50.4556 2.84701L51.0974 2.83643L51.0762 1.4997L48.0651 1.54841L48.0869 2.88543L48.7288 2.87515L48.8097 7.86956L48.1679 7.87984L48.184 8.88094L44.9648 5.45469L47.1514 1.48593L45.1091 1.74791L43.4155 5.18962C43.34 5.38643 43.2876 5.53693 43.2578 5.64152L43.231 5.64451L42.7696 2.04821L41.0564 2.26797L42.0324 9.87485L43.7456 9.65509Z" fill="white"/>
<path d="M61.4881 9.22828L58.6768 8.64136L59.0355 6.92409L61.4908 7.43657L61.7768 6.06491L59.3214 5.55234L59.6704 3.88248L62.3089 4.43297L62.5962 3.05613L58.2662 2.15244L56.6994 9.66022L61.2022 10.5999L61.4881 9.22828Z" fill="white"/>
<path d="M62.7959 1.20129L61.6282 0.585242L59.6108 1.1117L60.5587 1.61168L62.7959 1.20129Z" fill="white"/>
<path d="M61.9352 10.5026C62.1492 10.7306 62.4228 10.9425 62.756 11.1375C63.0892 11.3326 63.454 11.5013 63.8503 11.6432C64.2364 11.7813 64.6162 11.876 64.9899 11.9267C65.3643 11.9774 65.712 11.9647 66.0349 11.889C66.3572 11.8132 66.6438 11.6661 66.8947 11.4471C67.1457 11.2283 67.3432 10.9177 67.4871 10.5149C67.5921 10.2228 67.64 9.95126 67.6318 9.69996C67.6229 9.44907 67.5675 9.20835 67.4638 8.97831C67.361 8.74787 67.2191 8.52372 67.0373 8.30565C66.8564 8.08729 66.6431 7.86583 66.3976 7.64158C66.2173 7.47871 66.0583 7.32581 65.9198 7.1836C65.7811 7.04128 65.6688 6.90615 65.5823 6.77831C65.4953 6.65076 65.437 6.52771 65.4075 6.40905C65.3781 6.29078 65.3848 6.17122 65.4281 6.05016C65.4678 5.93939 65.5323 5.84986 65.6215 5.7813C65.7099 5.71274 65.8182 5.66513 65.9451 5.63879C66.0719 5.61234 66.2173 5.60855 66.3811 5.62741C66.5444 5.64627 66.7186 5.68879 66.9036 5.75495C67.0373 5.80296 67.1759 5.86394 67.3179 5.93769C67.4597 6.01104 67.5989 6.09607 67.7353 6.19208C67.8712 6.28839 67.9994 6.39368 68.1187 6.50845C68.2386 6.62332 68.3443 6.74477 68.4347 6.87162L68.9744 5.36623C68.7625 5.18449 68.5199 5.01893 68.2462 4.86972C67.9719 4.72032 67.6469 4.57831 67.2712 4.44358C66.8886 4.30645 66.5108 4.21763 66.1391 4.17721C65.7675 4.13679 65.4199 4.15735 65.0976 4.23859C64.7747 4.31982 64.4894 4.46863 64.2418 4.68459C63.9936 4.90096 63.8023 5.19677 63.668 5.57262C63.4959 6.05286 63.4876 6.51194 63.6432 6.95006C63.7982 7.38819 64.1158 7.82601 64.5956 8.26284C64.7849 8.4329 64.9591 8.59577 65.1195 8.75176C65.2794 8.90775 65.4123 9.05755 65.5179 9.20116C65.6235 9.34517 65.6968 9.48679 65.7373 9.62661C65.7785 9.76613 65.7737 9.90635 65.7229 10.0473C65.6859 10.1515 65.6262 10.2389 65.5439 10.3098C65.4617 10.3809 65.3575 10.4306 65.2319 10.4593C65.1059 10.4882 64.9598 10.4937 64.7939 10.4758C64.6279 10.458 64.4427 10.4124 64.2384 10.339C63.8887 10.2139 63.5651 10.0287 63.2669 9.7836C62.9686 9.53849 62.7169 9.24128 62.5126 8.89158L61.9352 10.5026Z" fill="white"/>
<path d="M74.3357 15.2505L73.792 14.9094L76.4468 10.6781L76.9907 11.0189L77.701 9.88646L75.1503 8.28616L74.4399 9.4189L74.9836 9.76002L72.3287 13.9913L71.7849 13.6501L71.0746 14.7829L73.6254 16.383L74.3357 15.2505Z" fill="white"/>
<path d="M75.589 17.7851L78.2934 14.5525C78.6499 14.126 78.9043 13.7996 79.0565 13.5737L79.073 13.5874C79.0359 13.7424 78.9982 13.9875 78.9598 14.3224L78.292 20.0465L79.6291 21.1656L84.5508 15.2831L83.2995 14.2364L80.5781 17.4893C80.242 17.8914 80.0275 18.1698 79.9348 18.3247L79.9185 18.3111C79.961 18.0772 79.9959 17.8349 80.0247 17.5842L80.6863 12.0505L79.2588 10.8561L74.3377 16.7384L75.589 17.7851Z" fill="white"/>
<path d="M81.6628 23.5283L83.916 21.5796L85.5431 23.4605L86.6024 22.544L84.976 20.6629L86.3995 19.4314L88.1699 21.4781L89.234 20.558L86.3336 17.2047L80.5328 22.2217L81.6628 23.5283Z" fill="white"/>
<path d="M87.9779 25.3886C88.6142 24.9936 89.2196 24.8277 89.7935 24.8911C90.3681 24.9542 90.8152 25.2432 91.1347 25.7586C91.4446 26.2584 91.5016 26.7689 91.3048 27.2896C91.1072 27.8108 90.6712 28.2807 89.9958 28.7001C89.3472 29.1022 88.7486 29.2685 88.1994 29.1978C87.6494 29.1276 87.2182 28.8396 86.9041 28.3335C86.5996 27.843 86.5413 27.3294 86.7286 26.7932C86.9164 26.2574 87.3327 25.789 87.9779 25.3886ZM85.1145 26.2467C84.8718 27.2112 85.0404 28.1601 85.6191 29.0933C86.2136 30.0505 87.009 30.6323 88.0053 30.8383C89.0023 31.0444 90.0123 30.8298 91.036 30.1941C92.0329 29.5757 92.6576 28.7902 92.9099 27.8385C93.163 26.8864 93.0004 25.9454 92.4231 25.0153C91.8122 24.0306 91.0037 23.4375 89.9971 23.2356C88.9905 23.0333 87.9717 23.252 86.9418 23.8914C85.9668 24.4969 85.3572 25.282 85.1145 26.2467Z" fill="white"/>
<path d="M94.6111 32.3143L94.9011 33.0394C95.1987 33.7843 95.0362 34.2814 94.4143 34.53C94.1161 34.6493 93.824 34.6431 93.5373 34.5119C93.2548 34.3826 93.045 34.146 92.9079 33.8018L92.6295 33.1066L94.6111 32.3143ZM88.6916 34.6805L91.418 33.5907L91.5906 34.0226C91.6304 34.122 91.6462 34.2221 91.6387 34.3232C91.6312 34.424 91.6037 34.5289 91.5571 34.638C91.5105 34.747 91.4481 34.8613 91.3693 34.9812C91.2904 35.1008 91.1978 35.2301 91.0915 35.3683L89.7017 37.2083L90.4381 39.0507L92.0062 36.8634C92.0878 36.7502 92.1687 36.6285 92.2489 36.4982C92.3292 36.3684 92.4005 36.237 92.4629 36.1047C92.5253 35.9723 92.574 35.8414 92.6089 35.7125C92.6432 35.5832 92.6562 35.4591 92.6473 35.3401L92.6672 35.3319C92.8331 35.5458 93.0169 35.7268 93.2178 35.8749C93.4195 36.023 93.6319 36.1328 93.8562 36.2044C94.081 36.276 94.3136 36.3077 94.5542 36.2998C94.7949 36.2918 95.0389 36.2384 95.2878 36.1393C96.579 35.6233 96.8793 34.5009 96.1882 32.7726L95.172 30.2298L88.0506 33.0763L88.6916 34.6805Z" fill="white"/>
<path d="M90.8632 40.8732L95.0368 40.119C95.5984 40.0179 96.2464 39.8769 96.9822 39.6969L96.991 39.7442C96.4453 39.9551 96.1092 40.0974 95.9811 40.1714L91.2273 42.8891L91.4783 44.2783L96.9294 45.1197C97.1453 45.1532 97.493 45.1717 97.9723 45.1758L97.9799 45.2181C97.3826 45.2824 96.8402 45.3586 96.3527 45.4467L91.8368 46.2626L92.1399 47.9415L99.6871 46.578L99.2489 44.1518L94.5076 43.4161C94.1798 43.3664 93.7985 43.332 93.3639 43.3129L93.3584 43.2813C93.7095 43.1596 94.0529 43.0054 94.3882 42.8178L98.5831 40.4677L98.1334 37.9779L90.5862 39.3418L90.8632 40.8732Z" fill="white"/>
<path d="M98.3165 52.3994C98.0483 52.4177 97.8174 52.4543 97.6234 52.5101L95.0253 53.2671L95.076 51.3051L97.6528 52.2061C97.8722 52.2828 98.0937 52.3332 98.3179 52.3569L98.3165 52.3994ZM92.116 48.4469L92.068 50.3181L93.7595 50.9019L93.6896 53.6288L91.9699 54.13L91.9212 56.0122L99.6583 53.4827L99.7112 51.435L92.116 48.4469Z" fill="white"/>
<path d="M97.6335 59.19L91.477 58.0404L91.1587 59.7437L97.3154 60.8932L96.9136 63.0435L98.2966 63.3016L99.4156 57.3082L98.0326 57.0501L97.6335 59.19Z" fill="white"/>
<path d="M96.5194 64.4296L91.7415 62.9718L91.9288 62.3582L90.6499 61.968L89.771 64.8478L91.0497 65.238L91.2375 64.6243L96.0154 66.0821L95.8282 66.6957L97.107 67.0859L97.9852 64.2061L96.7065 63.816L96.5194 64.4296Z" fill="white"/>
<path d="M89.9129 77.1831C90.0582 77.3649 90.2194 77.5246 90.397 77.6632L90.3736 77.6988C90.1363 77.5725 89.9211 77.4814 89.727 77.4259L87.1221 76.6929L88.2035 75.0548L89.9129 77.1831ZM88.8535 67.2195L92.2873 68.7373L92.277 68.7617C92.0405 68.7586 91.8842 68.7638 91.8081 68.7768L87.8572 69.4744L87.0523 71.2953L86.1745 72.6247L87.3004 74.0161L85.7975 76.2917L84.0729 75.807L83.0355 77.3778L90.9386 79.3279L92.0673 77.6192L87.4353 71.3723L91.8177 70.4358L94.0824 74.3603L94.9149 72.4774L92.8455 69.2471C92.7166 69.0808 92.6151 68.9582 92.541 68.8785L92.552 68.8543L95.8687 70.3201L96.5667 68.74L89.5522 65.6394L88.8535 67.2195Z" fill="white"/>
<path d="M87.2888 81.9274L83.4984 78.6738L83.9167 78.1869L82.9018 77.3155L80.9408 79.6008L81.9557 80.4717L82.3732 79.9842L86.1637 83.2383L85.746 83.7253L86.7601 84.596L88.7218 82.3114L87.707 81.4405L87.2888 81.9274Z" fill="white"/>
<path d="M70.6439 94.8057C70.5075 94.5739 70.3711 94.3846 70.2339 94.2359L68.3894 92.2556L70.1647 91.4184L70.5185 94.1255C70.5486 94.3559 70.6035 94.5766 70.683 94.7871L70.6439 94.8057ZM74.8855 84.993L77.0385 88.0689L77.0166 88.0846C76.8158 87.9592 76.6792 87.8831 76.608 87.855L72.8656 86.4069L71.1791 87.5874L69.6936 88.2883L69.9329 90.0615L67.4658 91.225L66.2446 89.9147L64.5421 90.7176L70.2798 96.4911L72.1325 95.6175L71.4127 87.7741L75.757 89.2791L75.6638 93.8095L77.3512 92.6287L77.2525 88.7944C77.2278 88.5852 77.2045 88.4275 77.1818 88.3212L77.2038 88.3055L79.2834 91.2765L80.6987 90.2857L76.3008 84.0029L74.8855 84.993Z" fill="white"/>
<path d="M63.1668 97.6773C62.3933 97.8913 61.9174 97.6752 61.7384 97.0287C61.6535 96.7194 61.6919 96.4294 61.8537 96.1593C62.0128 95.8932 62.2712 95.7108 62.6292 95.6121L63.3505 95.4125L63.9189 97.4695L63.1668 97.6773ZM62.2206 91.3245L63.0028 94.155L62.5544 94.2784C62.4509 94.3072 62.3501 94.312 62.2506 94.2936C62.1505 94.2743 62.0498 94.236 61.9463 94.1777C61.8433 94.1194 61.7364 94.044 61.6261 93.9528C61.5157 93.8608 61.3976 93.7553 61.2723 93.6346L59.5965 92.05L57.6841 92.5786L59.6855 94.3785C59.789 94.4718 59.9008 94.5657 60.0209 94.6597C60.1416 94.7543 60.2643 94.84 60.389 94.9161C60.5139 94.993 60.6379 95.0554 60.7628 95.104C60.8868 95.1534 61.0089 95.1794 61.129 95.1835L61.1345 95.2042C60.9033 95.3454 60.7031 95.5079 60.5338 95.6917C60.3644 95.8753 60.2321 96.0748 60.136 96.2903C60.04 96.5056 59.9832 96.7331 59.9639 96.9731C59.9455 97.2131 59.9722 97.462 60.0428 97.7198C60.4138 99.0597 61.4957 99.482 63.2894 98.9863L65.9294 98.2568L63.8853 90.8644L62.2206 91.3245Z" fill="white"/>
<path d="M50.5627 95.0264C49.4236 95.0264 48.5001 95.9499 48.5001 97.089C48.5001 98.228 49.4236 99.1515 50.5627 99.1515C51.7017 99.1515 52.6252 98.228 52.6252 97.089C52.6252 95.9499 51.7017 95.0264 50.5627 95.0264Z" fill="white"/>
</svg>
