<svg width="150" height="64" viewBox="0 0 150 64" fill="none" xmlns="http://www.w3.org/2000/svg">
<path d="M132.708 31.8461L132.759 31.7804C133.848 30.4513 134.95 29.1442 135.98 27.8297L142.939 19.0667L142.983 19.0083C144.394 17.2926 145.712 15.5034 146.934 13.6483C147.058 13.4584 147.175 13.2685 147.291 13.0714C147.408 12.8742 147.467 12.7574 147.54 12.5967C147.579 12.5347 147.611 12.4686 147.635 12.3995C147.721 12.2353 147.794 12.0643 147.854 11.8884C147.927 11.7058 147.985 11.5159 148.044 11.3407C148.039 11.3092 148.039 11.2773 148.044 11.2457C148.087 11.0705 148.139 10.8952 148.175 10.72C148.336 10.0306 148.414 9.32465 148.409 8.61685C148.415 7.55395 148.179 6.50357 147.719 5.54564C147.258 4.58771 146.585 3.74747 145.751 3.08886C144.003 1.51639 141.634 0.730153 138.645 0.730153C137.646 0.725592 136.649 0.830893 135.673 1.04416C134.906 1.13658 134.15 1.30537 133.417 1.54803L121.557 19.3369L113.576 7.06141C113.037 6.19381 112.439 5.36424 111.787 4.57857C111.692 4.45442 111.59 4.34489 111.495 4.23535L111.436 4.16963L111.144 3.84832L111.1 3.81181C110.881 3.57813 110.655 3.35905 110.421 3.14728L110.37 3.10346L110.1 2.86978L109.998 2.78946C109.928 2.72663 109.855 2.6681 109.779 2.6142L109.654 2.51926L109.443 2.36591L109.318 2.28558L109.158 2.19065L109.07 2.13223L108.968 2.06651C108.595 1.81459 108.205 1.59006 107.8 1.39468C107.33 1.17763 106.841 1.00408 106.339 0.876203C106.006 0.780061 105.667 0.706864 105.324 0.657128C105.075 0.607097 104.824 0.570531 104.572 0.547591C104.3 0.520695 104.027 0.508507 103.754 0.511078H103.25H102.907H102.754H102.513H102.272H102.016H101.819L101.505 0.730153H101.395L100.84 0.846993C100.636 0.890808 100.439 0.949228 100.242 1.00765C100.044 1.06607 99.8837 1.11719 99.7157 1.18291C99.5478 1.24863 99.3725 1.31435 99.2045 1.38007C98.8759 1.52612 98.5546 1.69408 98.2406 1.86204H98.1895L97.7586 2.13223C97.6161 2.22051 97.4795 2.31809 97.3497 2.42433L97.284 2.46084L96.8823 2.78946C96.8166 2.84057 96.7655 2.89899 96.7071 2.93551C96.6371 3.0117 96.5614 3.0825 96.4807 3.14728C96.2543 3.37366 96.028 3.59273 95.8235 3.81911C95.619 4.04549 95.4803 4.19153 95.3269 4.3741C95.2843 4.41186 95.2452 4.45341 95.2101 4.49824L94.8815 4.88527C94.8157 4.98751 94.7354 5.07514 94.6624 5.17737C94.4871 5.40131 94.3192 5.62769 94.1585 5.8565L94.0709 5.98795C93.9395 6.17781 93.8226 6.36037 93.7131 6.55024C93.6035 6.7401 93.4429 7.0176 93.3187 7.28049L92.9828 8.01074L92.8952 8.23712C92.8222 8.39777 92.7637 8.55842 92.7053 8.71908L108.968 31.7438L98.226 45.4287C96.9326 47.0996 95.7355 48.8428 94.6405 50.65C93.7258 52.1951 93.2652 53.9668 93.3114 55.7617C93.2978 56.8819 93.54 57.9904 94.0196 59.0028C94.4992 60.0152 95.2036 60.9048 96.0791 61.6037C97.9875 63.1762 100.85 63.96 104.667 63.9551C105.155 63.9579 105.643 63.9261 106.127 63.8602C106.643 63.863 107.158 63.8264 107.668 63.7507L114.423 53.5272L120.659 44.0997L129.349 57.4267C130.53 59.3819 132.048 61.1125 133.833 62.5385C135.319 63.5212 137.068 64.0304 138.85 63.999H139.405C139.587 63.999 139.77 63.999 139.945 63.999H140.077H140.135C140.427 63.999 140.712 63.9551 140.989 63.9186C141.267 63.8821 141.661 63.8164 141.983 63.7507C142.304 63.6849 142.611 63.6046 142.91 63.5097C143.213 63.4286 143.51 63.3286 143.801 63.2103C144.078 63.1007 144.356 62.9766 144.619 62.8452C145.147 62.5797 145.648 62.2643 146.116 61.9031C146.352 61.7202 146.579 61.5253 146.795 61.3189C146.999 61.1218 147.197 60.9246 147.386 60.7055V60.6617C147.573 60.4606 147.743 60.2458 147.898 60.0191C148.267 59.5178 148.587 58.9823 148.854 58.4198C148.978 58.1497 149.095 57.8722 149.205 57.5947C149.241 57.4997 149.27 57.3902 149.3 57.2953C149.329 57.2003 149.336 57.2003 149.351 57.1638C149.365 57.1273 149.438 56.8644 149.482 56.7111C149.526 56.5577 149.555 56.4117 149.592 56.2583C149.628 56.105 149.592 56.1342 149.636 56.0611C149.679 55.9881 149.679 55.8859 149.694 55.791L132.708 31.8461ZM148.847 56.3386L148.803 56.4993C148.75 56.6892 148.691 56.879 148.628 57.0689L148.46 57.5289C148.45 57.5671 148.435 57.6039 148.416 57.6385C148.277 57.9598 148.131 58.2738 147.963 58.5805C147.912 58.69 147.846 58.7923 147.781 58.9091C147.691 59.0601 147.593 59.2063 147.489 59.3473C147.46 59.3957 147.429 59.4421 147.394 59.486C147.376 59.5136 147.354 59.5383 147.328 59.559C147.257 59.6684 147.179 59.7733 147.094 59.873L146.999 59.9899L146.897 60.0994C146.729 60.2893 146.554 60.4645 146.357 60.6617C146.16 60.8589 145.933 61.0341 145.721 61.2094C145.51 61.3847 145.371 61.465 145.188 61.5891C144.916 61.7669 144.633 61.9279 144.341 62.0711C144.093 62.2016 143.837 62.3163 143.574 62.4143C143.443 62.4654 143.312 62.5238 143.18 62.5604L142.954 62.6334C142.757 62.6991 142.559 62.7502 142.355 62.8086L141.99 62.889H141.939C141.858 62.889 141.785 62.889 141.705 62.9328C141.625 62.9766 141.355 62.9985 141.179 63.0204H140.909L140.515 63.0715C140.186 63.0715 139.858 63.1153 139.514 63.13H138.981C138.755 63.13 138.536 63.13 138.331 63.13C138.119 63.1221 137.907 63.1026 137.696 63.0715C137.535 63.0715 137.367 63.0277 137.207 62.9912H137.039C136.891 62.9625 136.745 62.9259 136.601 62.8817L136.382 62.8232C135.959 62.6964 135.549 62.5327 135.155 62.334C134.882 62.2001 134.619 62.0489 134.366 61.8812C132.646 60.5057 131.182 58.8369 130.043 56.952L121.222 43.698L121.061 43.4497L120.645 42.8144L120.221 43.457L120.06 43.7053L108.077 61.8155C107.153 55.1501 108.749 48.3796 112.554 42.829C113.751 41.049 115.079 39.36 116.526 37.7757C118.721 35.3885 121.057 33.1353 123.522 31.0282L124.055 30.5681C123.887 30.4002 123.712 30.2395 123.536 30.0862C121.55 28.2362 119.379 26.3643 117.023 24.4706L116.84 24.3245C109.475 18.4647 101.7 13.1397 93.5743 8.39047L93.6254 8.25902V8.2006C93.7131 8.00344 93.808 7.79897 93.9102 7.5945C94.0125 7.39003 94.1512 7.15635 94.2827 6.94457C94.4119 6.71569 94.5533 6.49387 94.7062 6.28005C94.8523 6.06097 95.0129 5.8346 95.1809 5.62282C95.3488 5.41105 95.5241 5.19198 95.7066 4.9802C96.0937 4.53475 96.5026 4.0966 96.9408 3.67306L97.2986 3.35175C97.4154 3.25682 97.5323 3.15458 97.671 3.05235L98.0508 2.78946L98.1457 2.72373L98.5838 2.48275C99.1682 2.14629 99.7909 1.88149 100.439 1.69408L100.57 1.65027C100.862 1.56264 101.184 1.49691 101.519 1.43119H101.571H101.614C101.678 1.42761 101.741 1.42761 101.804 1.43119H101.899H102.074H102.315H102.549H102.593H102.783H103.009H103.739C105.453 1.39729 107.136 1.89193 108.559 2.84788L108.807 3.00853H108.858L108.961 3.08156L109.099 3.17649H109.136L109.216 3.23491C109.284 3.2925 109.354 3.34614 109.428 3.39556L109.479 3.44668H109.523C109.606 3.50922 109.684 3.57755 109.757 3.65115L109.83 3.70957C110.041 3.89944 110.253 4.1039 110.45 4.31568L110.502 4.36679C110.604 4.46173 110.691 4.57126 110.786 4.6735L110.83 4.72462L110.867 4.76843C110.467 5.03959 110.05 5.28356 109.618 5.49868C108.34 6.22893 106.748 7.08332 106.653 8.55842C106.587 9.61729 107.318 10.6834 108.888 11.8372L114.73 16.1019C116.713 17.5871 118.615 19.179 120.426 20.8704C122.31 22.6011 124.42 24.6531 126.947 27.1506L127.451 27.6471L127.998 27.2017C128.03 27.1687 128.067 27.1415 128.108 27.1214C129.145 26.267 130.233 25.4053 131.343 24.5363C139.244 18.3292 143.881 9.79985 142.114 4.69541C141.884 3.98871 141.511 3.33684 141.019 2.78031C140.527 2.22379 139.925 1.77451 139.251 1.4604C141.462 1.44391 143.613 2.17473 145.356 3.53431C146.112 4.12459 146.723 4.88059 147.141 5.74406C147.559 6.60753 147.772 7.55539 147.766 8.51461C147.686 9.18644 147.613 9.86557 147.54 10.5666C147.311 11.5336 146.905 12.4497 146.342 13.2685C145.124 15.1145 143.807 16.894 142.399 18.5994L140.288 21.2648L135.447 27.3916C134.403 28.6768 133.358 29.9693 132.299 31.2546L132.175 31.4006L131.832 31.8096L131.92 31.9264L132.139 32.2477L132.226 32.3719L148.971 55.9224C148.92 56.0611 148.883 56.2291 148.847 56.3386Z" fill="white"/>
<path d="M40.0104 31.8467C41.113 30.4957 42.2011 29.1667 43.2746 27.8303L50.2412 19.0673C51.6655 17.3333 52.9964 15.5246 54.2283 13.6489C55.2511 12.1423 55.7864 10.3579 55.7618 8.53713C55.7683 7.47423 55.5323 6.42385 55.0717 5.46592C54.6111 4.50799 53.938 3.66776 53.1037 3.00914C51.3317 1.49022 48.9437 0.730765 45.94 0.730765C44.9408 0.726966 43.9442 0.832259 42.9679 1.04477H42.7634C42.0689 1.14436 41.3846 1.30565 40.7187 1.52674L28.8595 19.3375L20.8705 7.06203C19.7354 5.06156 18.1596 3.3459 16.2627 2.04521C14.7227 1.01223 12.9027 0.476936 11.0487 0.511691C9.71591 0.447323 8.38368 0.649236 7.12985 1.10563C5.87601 1.56203 4.72571 2.26375 3.74618 3.1698C2.08637 4.70052 0.804069 6.59522 0 8.70509L16.2627 31.7372L5.52069 45.4293C4.23179 47.1019 3.0372 48.845 1.94246 50.6506C1.02482 52.1945 0.563966 53.967 0.613409 55.7624C0.598355 56.882 0.839201 57.9903 1.31758 59.0028C1.79595 60.0152 2.49922 60.905 3.37375 61.6043C5.287 63.1768 8.15202 63.9606 11.9688 63.9557C12.4572 63.9582 12.9453 63.9265 13.4293 63.8608C13.9449 63.863 14.46 63.8264 14.9701 63.7513L27.932 44.0784L28.3264 44.6772L28.6404 45.1518L36.6293 57.4054C37.815 59.3639 39.3408 61.095 41.1349 62.5172C42.6177 63.5014 44.3651 64.0108 46.1445 63.9777C49.1433 63.9777 51.5775 63.262 53.447 61.8307C54.5774 60.9541 55.4917 59.8299 56.1197 58.5446C56.2281 58.3366 56.3232 58.122 56.4045 57.902C56.4823 57.7121 56.5554 57.5223 56.6235 57.3324C56.6966 57.1279 56.755 56.9161 56.8134 56.7044C56.8718 56.4926 56.8718 56.4853 56.901 56.3758C56.9302 56.2662 56.996 55.9887 57.0325 55.7916L40.0104 31.8467ZM27.3917 43.6475L14.7072 62.802C11.7278 61.137 10.114 59.0996 9.77074 56.5656C9.00397 50.8843 14.6488 43.5307 22.0097 36.0456C25.4711 32.5258 29.3122 28.9841 33.0219 25.5592L33.9566 24.7049C44.0998 15.4088 52.1179 8.03326 50.4675 3.80511C50.2084 3.23405 49.8213 2.73023 49.3364 2.33263C48.8514 1.93503 48.2815 1.65429 47.6707 1.51213C49.4909 1.66599 51.2244 2.35735 52.651 3.49841C53.4096 4.0902 54.022 4.84838 54.4411 5.71442C54.8602 6.58046 55.0747 7.53122 55.0681 8.49332C55.084 10.1862 54.5736 11.8423 53.6076 13.2326C52.391 15.0934 51.0721 16.8853 49.657 18.6L42.7123 27.363C41.6972 28.6774 40.653 29.9407 39.5795 31.2552C39.5527 31.2958 39.5234 31.3349 39.4919 31.372C38.4038 32.4163 37.3596 33.3437 36.3518 34.2492C33.2433 36.9123 30.4014 39.8715 27.8663 43.0852C27.7495 43.2215 27.6399 43.3603 27.5377 43.5015C27.4866 43.5307 27.4355 43.5818 27.3917 43.6475ZM55.5647 57.9823C53.5024 58.9302 51.262 59.4281 48.9924 59.4428C42.7999 59.4428 36.863 55.441 30.9115 47.2257C35.8406 51.9431 40.1637 54.3092 43.888 54.3092C47.0646 54.3092 49.73 52.542 51.5483 49.3069L55.6742 55.1489C55.8714 55.4483 56.0612 55.7185 56.2438 55.9668C56.0922 56.6616 55.8645 57.3375 55.5647 57.9823Z" fill="white"/>
<path d="M83.3211 4.9803L83.2773 4.82695C83.2637 4.76759 83.2466 4.70908 83.2262 4.65169C83.2022 4.53689 83.168 4.42447 83.124 4.31577C82.9957 3.91269 82.8269 3.52366 82.6201 3.15468C82.5733 3.06696 82.5221 2.98165 82.4668 2.89909C82.4176 2.81193 82.3614 2.7289 82.2988 2.65081C82.2355 2.55831 82.1625 2.46337 82.0797 2.36601V2.32219C81.9848 2.21996 81.8972 2.11772 81.7949 2.02279L81.4736 1.7453C79.9498 0.581765 77.484 0 74.0762 0C72.5001 0.0086047 70.9273 0.145369 69.3734 0.40894L68.351 0.55499C67.2776 0.693737 66.4305 0.817879 65.7952 0.920114V55.4551C65.7952 58.5952 66.5108 60.8127 67.9421 62.1077C69.4026 63.3345 71.8708 63.9479 75.4125 63.9479H75.9456C76.1793 63.9479 76.4227 63.9479 76.6759 63.9479C77.0775 63.9479 77.4792 63.9479 77.8808 63.8895C78.2824 63.8311 78.4796 63.8895 78.779 63.8238L79.2098 63.7873L80.2614 63.6704C80.6996 63.612 81.1085 63.5609 81.4882 63.4952L81.8533 63.4368L82.3061 63.3637C82.883 63.2542 83.365 63.152 83.7666 63.057V8.4928C83.7611 7.30823 83.6115 6.12874 83.3211 4.9803ZM74.0762 0.730249C77.3112 0.730249 79.648 1.26333 81.0136 2.32219C81.7923 2.98263 82.3377 3.87624 82.569 4.87076C79.8306 8.7922 76.1063 13.6338 72.5281 17.9349C70.3884 20.52 68.2999 22.9225 66.4889 24.865V21.7906C67.3311 20.4226 68.093 19.1277 68.7746 17.9057C73.1196 10.114 74.4486 4.90728 72.8567 2.052C72.5856 1.56406 72.2149 1.13861 71.7686 0.803274C72.5573 0.730249 73.3313 0.730249 74.0762 0.730249ZM82.9998 62.5093C82.2696 62.6627 81.3349 62.8233 80.13 62.9767C78.919 63.138 77.7001 63.233 76.4787 63.2615C72.3455 47.583 69.9503 45.553 68.3291 45.553C67.9456 45.5716 67.5738 45.6907 67.2508 45.8983C66.9278 46.1059 66.6651 46.3948 66.4889 46.736V39.2509C66.8832 40.025 67.2703 40.7917 67.6719 41.5439C72.1775 50.3069 76.727 57.6532 80.3636 57.6532C80.9155 57.6409 81.4534 57.477 81.9183 57.1795C82.3833 56.882 82.7575 56.4623 82.9998 55.9663V62.5093Z" fill="white"/>
</svg>
