<svg xmlns="http://www.w3.org/2000/svg" xmlns:xlink="http://www.w3.org/1999/xlink" viewBox="0 0 279.96 136.12"><defs><style>.cls-1{fill:url(#linear-gradient);}.cls-2{fill:url(#linear-gradient-2);}.cls-3{fill:url(#linear-gradient-3);}.cls-4{fill:url(#linear-gradient-4);}</style><linearGradient id="linear-gradient" x1="30.89" y1="-24.52" x2="275.28" y2="118.51" gradientUnits="userSpaceOnUse"><stop offset="0" stop-color="#319638"/><stop offset="1" stop-color="#0088c3"/></linearGradient><linearGradient id="linear-gradient-2" x1="5.84" y1="18.28" x2="250.23" y2="161.32" xlink:href="#linear-gradient"/><linearGradient id="linear-gradient-3" x1="97.4" y1="168.7" x2="240.43" y2="-2.49" gradientUnits="userSpaceOnUse"><stop offset="0" stop-color="#80b856"/><stop offset="1" stop-color="#39b9e9"/></linearGradient><linearGradient id="linear-gradient-4" x1="48.51" y1="127.86" x2="191.54" y2="-43.33" xlink:href="#linear-gradient-3"/></defs><g id="Layer_2" data-name="Layer 2"><g id="Layer_1-2" data-name="Layer 1"><path class="cls-1" d="M279.35,133.33a1.56,1.56,0,0,1-1,2.79H229.06c-18,0-32.13-13.47-33.41-14.83-.18-.18-34.23-42.89-55.67-69.77l-17.07-21.4c-5-5.38-12.63-11.58-21-11.58H95L100,12.19c.72-.78,11.78-11.1,40-12.19C168.16,1.09,179.23,11.41,180,12.19L185,18.54l82,102.75A72.5,72.5,0,0,0,279.35,133.33Z"/><path class="cls-2" d="M.62,2.79A1.55,1.55,0,0,1,1.57,0H50.91C68.92,0,83,13.47,84.32,14.84,84.5,15,118.54,57.72,140,84.6L157.05,106c5,5.39,12.64,11.59,21,11.59h7L180,123.93c-.72.78-11.79,11.1-40,12.19C111.81,135,100.74,124.71,100,123.93L95,117.59,13,14.84A72.23,72.23,0,0,0,.62,2.79Z"/><path class="cls-3" d="M95,117.59h7c8.34,0,16-6.2,21-11.59L140,84.6C161.43,57.72,195.48,15,195.65,14.84,196.93,13.47,211.05,0,229.07,0h49.32a1.56,1.56,0,0,1,1,2.79A72.23,72.23,0,0,0,267,14.84L180,123.93h0s-11.76,12.19-40,12.19S100.71,124.74,100,123.93C98.7,122.39,95,117.59,95,117.59Z"/><path class="cls-4" d="M185,18.54h-7c-8.35,0-16,6.2-21,11.58L140,51.52c-21.44,26.88-55.49,69.59-55.66,69.77-1.28,1.36-15.4,14.83-33.42,14.83H1.57a1.56,1.56,0,0,1-1-2.79,72.5,72.5,0,0,0,12.36-12l87-109.1h0S111.77,0,140,0s39.25,11.39,39.95,12.19C181.26,13.73,185,18.54,185,18.54Z"/></g></g></svg>