<svg xmlns="http://www.w3.org/2000/svg" xmlns:xlink="http://www.w3.org/1999/xlink" viewBox="0 0 138.41 67.3"><defs><style>.cls-1{fill:url(#linear-gradient);}.cls-2{fill:url(#linear-gradient-2);}.cls-3{fill:url(#linear-gradient-3);}.cls-4{fill:url(#linear-gradient-4);}</style><linearGradient id="linear-gradient" x1="15.27" y1="-12.12" x2="136.09" y2="58.59" gradientUnits="userSpaceOnUse"><stop offset="0" stop-color="#00d71d"/><stop offset="1" stop-color="#0057b4"/></linearGradient><linearGradient id="linear-gradient-2" x1="2.89" y1="9.04" x2="123.71" y2="79.75" xlink:href="#linear-gradient"/><linearGradient id="linear-gradient-3" x1="48.15" y1="83.4" x2="118.86" y2="-1.23" gradientUnits="userSpaceOnUse"><stop offset="0" stop-color="#70ff83"/><stop offset="1" stop-color="#39f"/></linearGradient><linearGradient id="linear-gradient-4" x1="23.98" y1="63.21" x2="94.69" y2="-21.42" xlink:href="#linear-gradient-3"/></defs><g id="Layer_2" data-name="Layer 2"><g id="Layer_1-2" data-name="Layer 1"><path class="cls-1" d="M138.11,65.92a.77.77,0,0,1-.48,1.38H113.24c-8.9,0-15.88-6.66-16.52-7.34-.08-.08-16.92-21.2-27.52-34.49L60.77,14.89c-2.49-2.66-6.25-5.73-10.38-5.73H46.94L49.45,6c.35-.39,5.82-5.49,19.76-6C83.13.54,88.61,5.64,89,6l2.51,3.13L132,60A35.93,35.93,0,0,0,138.11,65.92Z"/><path class="cls-2" d="M.3,1.38A.77.77,0,0,1,.78,0H25.17c8.9,0,15.88,6.66,16.52,7.34.08.08,16.92,21.2,27.52,34.49,4.88,6.11,8.43,10.58,8.43,10.58,2.49,2.66,6.25,5.72,10.38,5.72h3.45L89,61.27c-.35.38-5.82,5.49-19.76,6-13.92-.54-19.4-5.65-19.75-6l-2.51-3.14L6.42,7.34A35.54,35.54,0,0,0,.3,1.38Z"/><path class="cls-3" d="M46.94,58.13H50.4c4.12,0,7.89-3.06,10.37-5.72l8.44-10.58C79.81,28.54,96.64,7.42,96.72,7.34,97.36,6.66,104.34,0,113.24,0h24.39a.77.77,0,0,1,.47,1.38,35.9,35.9,0,0,0-6.11,6L89,61.27h0s-5.81,6-19.76,6-19.41-5.63-19.75-6C48.79,60.51,46.94,58.13,46.94,58.13Z"/><path class="cls-4" d="M91.46,9.16H88c-4.13,0-7.89,3.07-10.37,5.73L69.2,25.47C58.6,38.76,41.77,59.88,41.68,60c-.63.68-7.61,7.34-16.52,7.34H.77A.77.77,0,0,1,.3,65.92a35.93,35.93,0,0,0,6.11-6L49.44,6h0s5.82-6,19.77-6S88.61,5.63,89,6C89.61,6.79,91.46,9.16,91.46,9.16Z"/></g></g></svg>