<svg xmlns="http://www.w3.org/2000/svg" viewBox="0 0 1920 1080"><defs><style>.cls-1{opacity:0.07;}.cls-2{fill:#f2f2f2;}</style></defs><g id="Layer_1" data-name="Layer 1"><g class="cls-1"><path class="cls-2" d="M1033.92,693.33a19.55,19.55,0,0,1-14-5.92c-5-4.81-11.78-10.32-19-16.16-12.25-9.88-26.12-21.09-37.26-33.71-22.35-25.33-26.23-48.79-11.86-71.72,13.69-21.85,41.76-36.61,81.18-42.67a274.94,274.94,0,0,1,55.56-2.63c10.47-2.6,50.23-9.1,65.54-5.25,22.26,5.6,36.17,14.47,40.25,25.64,2.9,8,.84,16.9-6.12,26.54-8.74,12.1-27,17.39-44.56,22.51-19.43,5.64-37.79,11-41.19,24.59-5.4,21.6-36,70.4-61.9,77.8A24.58,24.58,0,0,1,1033.92,693.33ZM1074.34,523a274.51,274.51,0,0,0-40.9,3c-26.88,4.13-62.44,14.67-79.15,41.34-13.59,21.69-9.81,44,11.57,68.24,11,12.44,24.75,23.56,36.91,33.38,7.28,5.88,14.17,11.43,19.21,16.33s10.91,6.19,17.8,4.23c25-7.14,54.62-54.65,59.88-75.71,3.81-15.24,22.94-20.79,43.2-26.68,17.14-5,34.85-10.13,43-21.41,6.36-8.82,8.29-16.83,5.74-23.84-3.73-10.23-16.95-18.46-38.23-23.82-14.93-3.77-54.4,2.8-64.33,5.3l-.23.06-.24,0C1088.46,523.42,1083,523,1074.34,523Z"/><path class="cls-2" d="M1047,707.61a31.62,31.62,0,0,1-18.22-5.72l-10.4-7.12c-18.48-12.6-41.49-28.3-60.37-43.41-29.4-23.55-47-43.05-44-67.51,1.33-10.78,8-20.42,13.42-28.16l1.91-2.76h0c17.41-25.53,55.81-45.18,97.81-50,20.54-2.37,39.72-1.53,52.41-1,5.92.25,11,.48,12.38.1,13.46-3.84,57.56-7.26,76.9-2.17,26.26,6.82,42.69,16.8,48.83,29.65,4,8.28,3.6,17.72-1.06,28-4.91,10.85-15.21,17.93-24.63,23.42-5.87,3.41-12.15,6.56-18.22,9.6-18.4,9.22-35.77,17.93-40.82,32.94a105.58,105.58,0,0,1-10.18,21c-8.26,13.35-21,28.31-37.89,44.47C1072,701.29,1058.86,707.61,1047,707.61Zm9.92-203.27a256.92,256.92,0,0,0-29.43,1.57c-41.17,4.77-78.72,23.9-95.66,48.74h0l-1.92,2.78c-5.2,7.47-11.67,16.76-12.9,26.79-2.83,23.06,14.32,41.87,42.91,64.76,18.79,15,41.73,30.7,60.17,43.28,3.72,2.54,7.22,4.93,10.42,7.13,20.51,14.1,43.36-4.11,52.23-12.6,16.7-16,29.29-30.73,37.41-43.86a102.91,102.91,0,0,0,9.89-20.4c5.44-16.2,23.36-25.18,42.33-34.69,6-3,12.27-6.15,18.06-9.52,12.77-7.43,19.76-14,23.38-22,4.29-9.48,4.65-18,1.1-25.49-5.74-12-21.51-21.43-46.86-28-18.55-4.89-62.44-1.52-75.3,2.15-1.73.49-5.55.35-13.34,0C1073.22,504.67,1065.52,504.34,1056.89,504.34Z"/><path class="cls-2" d="M1059.05,721.82a46.29,46.29,0,0,1-22-5.49c-22.07-11.75-57.66-32.22-85.33-51.25-46.73-32.16-71.42-55.13-68-84.37,1.64-14.15,11.36-26.38,18.46-35.3,1.56-2,3-3.75,4.15-5.35h0c21.35-29.29,69.49-53.44,114.45-57.42,20.12-1.79,40-.56,54.43.33,9.26.57,16.57,1,20,.43,18.13-3.08,65.26-5,87.83,1,47.83,12.85,68.47,34.11,61.35,63.18-2.58,10.53-8.66,19.24-20.35,29.11-6.93,5.86-14.49,11.22-21.8,16.41-17,12.06-33,23.44-39.38,39.3a116.66,116.66,0,0,1-13,23.54c-12,17-28.57,31.45-41.92,43.09l-5.05,4.43C1091.51,713.5,1075.59,721.82,1059.05,721.82ZM908.8,541.93h0c-1.19,1.63-2.64,3.46-4.23,5.45-6.86,8.63-16.25,20.45-17.78,33.69-3.19,27.65,21,49.94,66.7,81.39,27.55,19,63,39.36,85,51.07s46.67,1.31,62.25-12.41c1.62-1.43,3.32-2.91,5.07-4.44,13.21-11.53,29.65-25.87,41.41-42.53a113.22,113.22,0,0,0,12.61-22.89c6.69-16.72,23.11-28.37,40.49-40.71,7.26-5.15,14.76-10.48,21.6-16.25,11.12-9.4,16.9-17.61,19.31-27.44,6.63-27.07-13.26-47-59.1-59.36-22.15-5.95-68.57-4-86.47-1-3.81.65-10.92.21-20.74-.4-14.38-.89-34.08-2.1-54-.34C976.84,489.71,929.67,513.31,908.8,541.93Z"/><path class="cls-2" d="M1071.11,737.13a66.15,66.15,0,0,1-26.46-5.5c-32-13.86-73.06-35.23-99.87-52-64.06-40-95.89-66.61-92.06-101.21,2-18.14,15.52-33.66,24.45-43.93,2.16-2.47,4-4.62,5.44-6.45,22-28.61,75.43-61,131.07-64.8,20.57-1.38,41.22.17,57.82,1.42,11.55.88,20.69,1.57,26.26,1,19.26-1.89,70.88-3.45,98.8,4.19,52.25,14.33,77.45,37.44,74.89,68.68-1,12.85-5.86,23.25-16.06,34.79-8.17,9.23-17.29,17.51-26.1,25.52-15.4,14-29.94,27.2-37.18,43.36a130.06,130.06,0,0,1-15.76,26c-13.42,17.32-31.17,31.11-45.43,42.19-3.82,3-7.42,5.77-10.63,8.4C1108.13,728.85,1090.45,737.13,1071.11,737.13Zm-40.34-271.08c-5.58,0-11.23.15-16.86.53-54.68,3.7-107.11,35.49-128.68,63.52h0c-1.47,1.91-3.37,4.08-5.56,6.61-8.67,10-21.76,25-23.66,42.11-3.64,32.85,27.63,58.79,90.52,98,26.68,16.66,67.57,37.93,99.43,51.73,27.63,12,56.18.88,72.24-12.25,3.23-2.65,6.84-5.46,10.69-8.45,14.11-11,31.68-24.62,44.85-41.6a127.53,127.53,0,0,0,15.35-25.39c7.52-16.78,22.31-30.22,38-44.44,8.75-8,17.8-16.18,25.85-25.27,9.7-11,14.26-20.79,15.24-32.87,2.41-29.43-22-51.37-72.47-65.22-27.47-7.53-78.53-6-97.6-4.09-5.87.58-15.11-.12-26.83-1C1059.33,467.1,1045.3,466.05,1030.77,466.05Z"/><path class="cls-2" d="M1082.26,753.08a88.58,88.58,0,0,1-30.53-5.4C1014.24,734,967.19,712.35,937.31,695c-80.37-46.61-120.38-77.67-116-118,2.4-22.3,19.45-40.71,30.73-52.9,2.6-2.8,4.84-5.22,6.43-7.19h0c26.69-33.15,89.23-69.21,147.71-72.18,38.29-1.95,80.18,2.62,93.94,4.11,8.51.93,20.45,1.05,34.28,1.19,25.82.26,55.1.56,75.24,6.16,57,15.86,86.73,40.82,88.41,74.2.77,15.31-2.76,27.41-11.79,40.45-9.44,13.62-20.35,25.51-30.89,37-13.73,15-26.69,29.1-34.44,45a143.81,143.81,0,0,1-18.54,28.57c-15.55,18.68-35.41,32.59-51.38,43.76-5,3.52-9.78,6.85-13.77,9.9C1124.72,744.6,1104.83,753.08,1082.26,753.08Zm-56.33-305.4c-6.54,0-13.13.14-19.62.46-57.51,2.92-119,38.34-145.2,70.9h0c-1.66,2.07-3.94,4.53-6.58,7.38-11,11.85-27.56,29.76-29.83,50.93C821,611.82,848.77,639.69,939,692.05c29.73,17.24,76.55,38.79,113.87,52.4,33.14,12.08,65,1,82.2-12.11,4.05-3.1,8.83-6.45,13.89-10,15.8-11.05,35.45-24.81,50.71-43.14a140.41,140.41,0,0,0,18.09-27.88c8-16.36,21.09-30.67,35-45.83,10.47-11.41,21.29-23.21,30.6-36.64,8.68-12.53,11.92-23.63,11.18-38.32-1.6-31.73-30.49-55.64-85.89-71-19.71-5.49-48.74-5.78-74.36-6-13.91-.14-25.93-.26-34.61-1.2C1088.35,451,1057.74,447.68,1025.93,447.68Z"/><path class="cls-2" d="M1092.82,769.48a115.08,115.08,0,0,1-34.61-5.28c-43.49-13.69-96.51-35.63-128.94-53.35-110.39-60.34-144.42-93.11-140-134.87,2.79-26.58,24.31-48.77,37.16-62,3-3.06,5.52-5.7,7.27-7.78h0c27.47-32.85,96.39-71.59,164.19-79.55,32.15-3.77,68.08,1.05,91.86,4.25,4.32.58,8.27,1.11,11.78,1.54,9.75,1.18,23.42,1.63,37.89,2.11,28.11.93,60,2,82.68,8.38,61,17.2,96.26,44.77,101.88,79.74,2.9,18,.72,31.37-7.52,46.09-10.66,19.08-23.57,35.18-36,50.75-12.05,15-23.43,29.24-31.29,44.41A158.06,158.06,0,0,1,1227.78,695c-18,20.42-40.31,34.7-58.27,46.18-5.9,3.77-11.47,7.33-16,10.57C1139.44,761.81,1117.37,769.48,1092.82,769.48Zm-69.46-340.67a216.49,216.49,0,0,0-25.08,1.36c-66.9,7.85-134.84,46-161.86,78.29h0c-1.83,2.18-4.43,4.87-7.44,8-12.54,12.93-33.52,34.56-36.18,59.92-4.21,40,29.37,71.88,138.18,131.35,32.25,17.63,85,39.46,128.31,53.09,36.2,11.38,72.37,2.19,92.15-12,4.59-3.28,10.21-6.87,16.15-10.67,17.76-11.36,39.87-25.49,57.51-45.53a153.77,153.77,0,0,0,20.82-30.36c8-15.49,19.52-29.83,31.68-45,12.39-15.46,25.21-31.44,35.73-50.26,7.8-14,9.86-26.64,7.11-43.78-5.39-33.5-39.73-60.08-99.33-76.87-22.29-6.27-53.92-7.32-81.83-8.25-14.55-.48-28.29-.93-38.2-2.13-3.52-.43-7.49-1-11.82-1.55C1071.75,432.06,1047.6,428.81,1023.36,428.81Z"/><path class="cls-2" d="M1103.32,785.46a146.77,146.77,0,0,1-39.1-5.3c-49.69-13.74-108.69-36-143.47-54-127.49-66.29-168.88-104.56-164-151.7,3.2-30.92,28.55-56.16,43.7-71.24,3.28-3.28,6.12-6.1,8-8.28h0c26.77-31,100.57-78.43,180.81-86.94,34-3.6,72.38,1.79,100.45,5.72,4.56.64,8.84,1.24,12.75,1.76,10.93,1.42,25.64,2.2,41.21,3,30.5,1.61,65.06,3.42,90.41,10.63,66,18.78,105.92,48.28,115.35,85.31,5.2,20.41,4.26,35.4-3.25,51.71-11.77,25.56-26.89,46.37-41.53,66.49-10.39,14.31-20.21,27.82-27.82,41.79a171.18,171.18,0,0,1-24.09,33.6c-20.57,22.33-45.59,37.1-65.69,49-6.86,4-12.78,7.55-17.67,10.85C1154.52,777.84,1130.61,785.46,1103.32,785.46ZM811.26,497.32h0c-2,2.28-4.86,5.16-8.2,8.48-14.8,14.74-39.56,39.4-42.62,69-4.69,45.26,36.2,82.61,162,148,34.58,18,93.28,40.08,142.75,53.76,41.43,11.46,81.14,2.3,102.1-11.85,5-3.36,10.94-6.89,17.86-11,19.89-11.75,44.65-26.37,64.84-48.3a167.39,167.39,0,0,0,23.57-32.86c7.72-14.18,17.61-27.79,28.08-42.2,14.52-20,29.54-40.64,41.16-65.86,7.21-15.67,8.06-29.48,3-49.25-9.09-35.67-48.09-64.25-112.77-82.65-25-7.1-59.29-8.9-89.59-10.49-15.65-.83-30.42-1.6-41.5-3.05-3.92-.51-8.21-1.12-12.78-1.76-27.88-3.9-66.07-9.26-99.55-5.7C910.42,420.05,837.63,466.8,811.26,497.32Z"/><path class="cls-2" d="M1112.93,801.32a179.94,179.94,0,0,1-43-5.2c-56-13.79-121-36.3-158-54.73-144.16-71.77-193.35-115.87-188-168.52,3.6-35.32,32.84-63.62,50.31-80.53,3.57-3.46,6.66-6.44,8.67-8.7l1.43,1.27-1.43-1.27c30.48-34.28,111.88-86.21,197.42-94.33,35.85-3.39,78.43,2.77,109.52,7.27,4.66.67,9.09,1.32,13.24,1.89,12,1.66,27.68,2.74,44.24,3.89,33,2.27,70.35,4.86,98.43,12.9,70.11,20.11,115.86,52.39,128.81,90.9,7.64,22.71,7.94,39.33,1,57.33-12.69,33-30.28,58.88-47.28,83.92-8.77,12.9-17,25.09-24,37.46A184.37,184.37,0,0,1,1277.39,721c-23.3,24.36-52.27,40.32-73.43,52-7.43,4.09-13.84,7.63-19,10.94C1169.71,793.62,1143.38,801.31,1112.93,801.32ZM1002.69,392.17c-7.51,0-14.89.29-22,1-84.5,8-164.85,59.24-194.92,93.05h0c-2.1,2.36-5.23,5.4-8.86,8.91-17.09,16.54-45.7,44.23-49.16,78.16C722.59,624,771.22,667.06,913.63,738c36.81,18.33,101.45,40.72,157.2,54.45,46.44,11.43,90.63,1.94,112-11.73,5.29-3.38,11.77-6.95,19.25-11.07,20.94-11.54,49.62-27.34,72.5-51.27A181,181,0,0,0,1300.92,683c7.08-12.5,15.4-24.75,24.21-37.73,16.89-24.86,34.35-50.57,46.88-83.14,7.68-20,5.13-36.32-1.07-54.73-12.53-37.28-57.36-68.68-126.23-88.42-27.69-7.95-64.85-10.51-97.63-12.78-16.63-1.14-32.34-2.23-44.5-3.91-4.17-.57-8.6-1.22-13.27-1.89C1064.61,396.8,1032.61,392.17,1002.69,392.17Z"/><path class="cls-2" d="M1122.92,817.3a220.43,220.43,0,0,1-47.53-5.21c-62.33-13.83-133.27-36.63-172.51-55.43-162.44-77.84-217.9-126.34-212-185.34,4-39.76,38.46-72.34,57-89.85,3.83-3.62,7.15-6.76,9.28-9.09h0c34.33-37.65,123.43-94.09,214-101.71,37.88-3.18,82.91,3.51,119.1,8.89,4.58.68,9,1.34,13.22,1.95,13,1.88,29.54,3.25,47,4.71,35.54,3,75.82,6.32,106.72,15.24,75.23,21.71,125.75,56,142.27,96.49,10.16,24.91,11.69,43.15,5.26,62.95-13.4,41.3-34.63,74-53.36,102.76-7.12,11-13.85,21.3-19.94,31.71A195.65,195.65,0,0,1,1301.83,734c-26.11,26.46-58.06,43-81.38,55.08-7.91,4.1-14.74,7.64-20.18,10.93C1184.32,809.66,1156.15,817.3,1122.92,817.3ZM992.2,373.82c-7.06,0-14,.24-20.65.81C882,382.16,794,437.88,760.11,475.05h0c-2.23,2.45-5.59,5.63-9.48,9.31-18.14,17.15-51.89,49.07-55.75,87.36C689.13,628.67,744,676.13,904.6,753.08c39,18.69,109.58,41.36,171.65,55.13,51.71,11.48,99.46,2,122-11.6,5.56-3.37,12.44-6.93,20.41-11.06,23.09-12,54.72-28.34,80.39-54.34a192.24,192.24,0,0,0,29-37.85c6.13-10.49,12.89-20.87,20-31.87,18.6-28.6,39.67-61,52.92-101.82,7.13-22,3.1-40-5.16-60.22-16-39.36-65.67-72.81-139.7-94.18-30.52-8.81-70.59-12.15-106-15.09-17.52-1.47-34.06-2.84-47.23-4.74-4.22-.61-8.64-1.27-13.23-1.95C1060.18,379.09,1024.67,373.82,992.2,373.82Z"/><path class="cls-2" d="M1132.84,833.28a264.44,264.44,0,0,1-52.12-5.23C1012,814.2,935.11,791.12,893.7,772,715.25,689.29,651.31,634.5,657.78,569.78c4.42-44.23,43-80,63.67-99.19,4.08-3.78,7.6-7,9.85-9.46h0C767,422.9,861.11,359.47,962,352c40-3,89.56,4.57,129.35,10.62l12.52,1.89c14,2.09,31.22,3.74,49.47,5.49,38.19,3.65,81.48,7.79,115.3,17.61,80.4,23.34,135.7,59.61,155.73,102.11,12.72,27,15.48,46.88,9.5,68.56-13.9,50.41-38.27,88.82-59.77,122.71-5.45,8.58-10.59,16.69-15.49,24.84A209.53,209.53,0,0,1,1326.15,747c-29,28.61-64,45.74-89.54,58.25-8.3,4.07-15.48,7.58-21.14,10.85C1198.82,825.7,1168.82,833.28,1132.84,833.28ZM734.3,463.93c-2.35,2.52-5.75,5.67-10.06,9.66-20.31,18.85-58.11,53.91-62.38,96.6-6.25,62.6,57,116.27,233.56,198,41.15,19.06,117.68,42,186.12,55.81,57,11.49,108.31,2.11,131.88-11.48,5.78-3.33,13-6.88,21.39-11,25.29-12.38,59.92-29.34,88.46-57.48a205.86,205.86,0,0,0,31.79-40.34c4.92-8.19,10.07-16.31,15.53-24.92,21.35-33.64,45.55-71.78,59.29-121.61,5.69-20.64,3-39.68-9.26-65.71-19.52-41.42-73.91-76.91-153.16-99.92-33.45-9.71-76.54-13.83-114.55-17.47-18.3-1.75-35.59-3.4-49.68-5.51-4-.6-8.24-1.24-12.53-1.89-39.59-6-88.83-13.49-128.44-10.6-94.38,7-190.12,67.23-228,107.81Z"/><path class="cls-2" d="M1142.69,849.27A313.39,313.39,0,0,1,1086,844c-75.1-13.87-158-37.23-201.53-56.8C782.8,741.58,716.58,704.05,676,669.15c-38.65-33.27-55-65.33-51.49-100.9,4.83-48.74,47.5-87.66,70.42-108.57,4.3-3.92,8-7.31,10.37-9.79h0c39.45-41.45,141.46-109.73,247.29-116.48,42.35-2.72,96.7,5.72,140.36,12.49l11.06,1.71c14.83,2.27,32.71,4.18,51.63,6.19,40.94,4.36,87.35,9.3,124.2,20.05,85.62,25,145.7,63.25,169.17,107.74,15.33,29,19.31,50.52,13.75,74.16-14.18,60.27-42,104.53-66.57,143.58q-5.45,8.64-10.65,17A223,223,0,0,1,1350.37,760c-32,30.8-70,48.52-97.82,61.46-8.65,4-16.12,7.51-22,10.73C1213.24,841.75,1181.41,849.27,1142.69,849.27ZM708.39,452.81h0c-2.47,2.59-6,5.86-10.59,10-22.5,20.53-64.38,58.73-69,105.86-6.77,68.25,65.41,128.44,257.41,214.7,43.29,19.44,125.76,42.67,200.57,56.5,59.54,11,116.4,2.61,141.81-11.36,6-3.29,13.5-6.8,22.22-10.86,27.51-12.81,65.19-30.36,96.67-60.67A218.63,218.63,0,0,0,1382,714.15c3.46-5.62,7-11.3,10.66-17.08,24.39-38.77,52-82.71,66-142.29,5.3-22.55,1.42-43.18-13.37-71.21-22.93-43.47-82.11-81-166.62-105.65-36.48-10.65-82.69-15.57-123.46-19.91-19-2-36.89-3.93-51.83-6.22l-11.06-1.71c-43.46-6.74-97.53-15.12-139.44-12.45C848.26,344.31,747.4,411.82,708.39,452.81Z"/><path class="cls-2" d="M1151.74,865.13a362.24,362.24,0,0,1-60.61-5.12c-81.51-13.88-170.35-37.52-216-57.49C663.22,710,583.63,643.84,591.22,566.73c5.25-53.28,52-95.36,77.19-118,4.69-4.22,8.4-7.56,10.87-10.1h0c31.16-32.16,139.3-117.1,263.9-123.88,44.86-2.45,101.83,6.55,152.1,14.49l8.87,1.39c15.59,2.45,34,4.59,53.49,6.85,43.79,5.08,93.43,10.84,133.4,22.56,90.9,26.64,155.77,66.9,182.63,113.36,17.93,31,23.14,54.11,18,79.76-14.22,70.77-45.86,120.9-73.77,165.13l-5.39,8.56a236.94,236.94,0,0,1-38,46.17c-35,33-76.18,51.35-106.23,64.71-8.94,4-16.65,7.41-22.67,10.57C1227.15,858.05,1192.61,865.13,1151.74,865.13ZM682.42,441.69c-2.58,2.66-6.33,6-11.09,10.32-24.7,22.21-70.69,63.56-75.76,115.14C588.2,642,667.06,706.86,876.83,798.52c45.4,19.84,133.83,43.35,215,57.19,64.65,11,125.26,2.68,151.72-11.24,6.15-3.23,13.93-6.69,22.93-10.7,29.77-13.24,70.53-31.37,105-63.89a232.18,232.18,0,0,0,37.27-45.32l5.4-8.57c27.71-43.91,59.11-93.68,73.18-163.66,4.93-24.5-.13-46.72-17.48-76.71-26.3-45.49-90.26-85-180.08-111.36-39.61-11.62-89-17.35-132.68-22.41-19.53-2.27-38-4.41-53.65-6.87l-8.87-1.4c-47.59-7.51-106.81-16.84-151.19-14.44-109.41,6-218.16,78.33-261,122.55Z"/><path class="cls-2" d="M1161.49,881.13a421.29,421.29,0,0,1-65.25-5.13c-87.94-13.89-182.75-37.81-230.55-58.18C747.22,767.35,666.26,722.93,618.17,682,573,643.59,553.82,606.47,557.85,565.2c5.66-57.82,58.56-104.79,84-127.37,4.9-4.35,8.77-7.78,11.34-10.4h0c34-34.51,150.65-125.36,280.53-131.26,47.55-2.18,109.91,7.84,164.93,16.66l5.59.9c16.22,2.6,35,4.94,55,7.42,46.76,5.82,99.77,12.42,143,25.13,96.22,28.32,165.86,70.58,196.09,119,20.27,32.48,26.92,58,22.21,85.36-14.07,81.88-49.68,137.59-81.1,186.74a250.26,250.26,0,0,1-40.75,48.69c-38.12,35.31-84.24,55-114.75,68-9.18,3.91-17.1,7.29-23.26,10.4C1241.47,874.1,1205.06,881.13,1161.49,881.13ZM656.39,430.59h0c-2.68,2.72-6.6,6.2-11.57,10.61-25,22.19-77,68.38-82.49,124.44-7.87,80.5,80.53,152.36,305.12,248,47.5,20.24,141.87,44,229.49,57.87,69.79,11,134.14,2.75,161.64-11.11,6.29-3.17,14.28-6.58,23.52-10.52,30.23-12.89,75.92-32.36,113.46-67.14a245.42,245.42,0,0,0,40-47.81c31.2-48.79,66.55-104.09,80.47-185.08,4.5-26.17-2-50.76-21.59-82.22-29.65-47.49-98.38-89.07-193.55-117.07-42.86-12.62-95.67-19.19-142.26-25-20-2.49-38.82-4.84-55.12-7.45l-5.59-.89c-54.81-8.79-116.93-18.76-164-16.62C805.48,306.5,690,396.42,656.39,430.59Z"/><path class="cls-2" d="M1171.26,897.13a484,484,0,0,1-70-5.14c-79.78-11.73-186.49-34.48-245.06-58.86C611.85,731.4,515.73,653.34,524.45,563.69c6.07-62.39,63.3-112.65,90.81-136.79,5.09-4.48,9.11-8,11.79-10.69l1.64,1.64-1.64-1.64C672.89,370.36,794,282.37,924.2,277.56c50.51-1.87,118.75,9.25,179,19.06l1.1.18c16.77,2.73,35.93,5.25,56.21,7.91,49.81,6.55,106.26,14,152.78,27.8,101.4,29.72,175.83,74,209.55,124.65,22.85,34.33,30.76,61.53,26.44,91-12.57,85.69-47.92,145.69-83,199.8a264,264,0,0,1-43.52,51.2c-41.26,37.61-90.66,57.86-123.36,71.26-9.37,3.84-17.47,7.16-23.76,10.21C1255.77,890.17,1217.51,897.13,1171.26,897.13ZM935.85,282q-5.88,0-11.48.21c-128.77,4.75-248.65,91.89-294,137.3-2.79,2.78-6.86,6.36-12,10.89-27,23.75-83.35,73.19-89.25,133.76-8.49,87.22,86.82,163.92,329,264.71,58.2,24.23,164.47,46.87,244,58.56,75,11,143,2.81,171.56-11,6.42-3.11,14.58-6.46,24-10.33,32.39-13.28,81.34-33.34,122-70.39a258.7,258.7,0,0,0,42.76-50.31c34.86-53.67,69.92-113.17,82.36-197.94,4.14-28.2-3.55-54.43-25.71-87.72C1485.83,410,1412.32,366.37,1312,337c-46.18-13.74-102.44-21.12-152.07-27.64-20.32-2.67-39.51-5.19-56.35-7.94l-1.11-.17C1046.89,292.15,984.5,282,935.85,282Z"/><path class="cls-2" d="M1181,913.15a550.34,550.34,0,0,1-74.68-5.15c-85.22-11.72-198.53-34.68-259.57-59.55C710.07,792.74,616.28,742.58,560.05,695.11c-51.74-43.68-73.67-85.91-69-132.92,6.35-67,68-120.48,97.6-146.2,5.3-4.6,9.48-8.24,12.27-11C626.51,379.73,762,253.94,914.82,259c49.23,1.63,120.06,9.45,189.47,20.92,17.18,2.84,36.53,5.51,57,8.34,53,7.31,113,15.6,163,30.51,106.79,31.42,186,77.7,223,130.31,25.43,36.14,34.6,65,30.67,96.56-11.89,95.31-50.11,159.84-85,212.84a277.38,277.38,0,0,1-46.3,53.72c-44.44,39.93-97.17,60.76-132,74.55-9.54,3.77-17.78,7-24.18,10C1270.06,906.24,1230,913.15,1181,913.15ZM905.8,263.58c-147.21,0-276.68,120.28-301.56,144.82h0c-2.89,2.85-7.12,6.53-12.49,11.19-29.15,25.31-89.81,78-96,143.06C486.61,655.39,592.12,739.54,848.59,844c60.65,24.71,173.49,47.56,258.42,59.24,80.14,11,151.94,2.87,181.46-10.87,6.53-3,14.84-6.32,24.45-10.12,34.57-13.66,86.81-34.3,130.62-73.66a272.65,272.65,0,0,0,45.5-52.8c34.59-52.55,72.48-116.52,84.24-210.81,3.77-30.26-5.15-58.14-29.83-93.23-36.4-51.74-114.7-97.37-220.46-128.48-49.67-14.81-109.53-23.07-162.34-30.36-20.52-2.83-39.89-5.51-57.14-8.36-69.21-11.44-139.81-19.24-188.85-20.86C911.71,263.63,908.74,263.58,905.8,263.58Z"/><path class="cls-2" d="M1190.84,929.23a624.82,624.82,0,0,1-79.47-5.17c-90.68-11.71-210.59-34.87-274.07-60.23-276.2-110.35-389.77-201-379.73-303.08C464.34,489.18,530.32,432.39,562,405.1c5.47-4.71,9.8-8.43,12.68-11.24,27.36-26.67,171.85-159.4,330.54-153.43,51.74,1.95,126.14,10.4,199,22.6,17.47,2.93,36.88,5.72,57.44,8.68,56.26,8.11,120,17.3,173.66,33.33,112.21,33.11,196.19,81.4,236.47,136,27.63,37.43,38.39,68.93,34.89,102.16-10.5,99.61-48,167.43-86.93,225.88a290.56,290.56,0,0,1-49.08,56.23c-47.67,42.28-103.71,63.68-140.8,77.85-9.68,3.69-18,6.89-24.54,9.8C1284.32,922.37,1242.44,929.23,1190.84,929.23ZM894.77,245.13c-152.54,0-290.12,126.39-316.65,152.24h0c-3,2.91-7.36,6.67-12.9,11.44C534,435.69,469,491.61,462.44,561.22c-9.78,99.54,102.87,188.67,376.68,298.06,63.08,25.2,182.5,48.25,272.88,59.92,85.35,11,160.88,2.94,191.38-10.74,6.62-3,15-6.19,24.8-9.92,36.75-14,92.29-35.24,139.3-76.93a285.84,285.84,0,0,0,48.24-55.28c38.6-57.93,75.75-125.13,86.14-223.68,3.41-32.35-6.75-61.88-34-98.74C1528.25,390.2,1445.18,342.55,1334,309.73c-53.29-15.93-116.87-25.09-173-33.17-20.58-3-40-5.77-57.55-8.7-72.69-12.16-146.85-20.59-198.4-22.54C901.63,245.19,898.18,245.13,894.77,245.13Z"/><path class="cls-2" d="M1200.65,945.3a702.9,702.9,0,0,1-84.29-5.18c-96.13-11.69-222.64-35.06-288.57-60.92C672.85,818.43,566.23,762.58,501.84,708.46,444.43,660.2,419,611.41,424.09,559.3c7.19-76.18,77.53-136.24,111.33-165.1,5.64-4.81,10.1-8.62,13.07-11.48h0c40.94-39.44,187-167.66,347.17-160.83,54.27,2.29,132.24,11.37,208.57,24.29,17.62,3,37,5.87,57.43,8.93,59.69,8.92,127.34,19,184.73,36.22,117.66,34.83,206.43,85.13,249.93,141.62,30.16,39.18,42.22,72.41,39.11,107.76-9.58,108.51-50.3,181.67-88.88,238.92a304.13,304.13,0,0,1-51.84,58.75c-51,44.66-110.34,66.62-149.64,81.15-9.78,3.61-18.23,6.74-24.82,9.59C1298.59,938.5,1254.91,945.3,1200.65,945.3ZM883.39,226.66c-153.46,0-291.87,121.59-331.41,159.68h0c-3.08,3-7.59,6.81-13.3,11.69-33.3,28.43-102.59,87.59-109.59,161.75-5,51.05,19.16,97.06,76,144.83C569,758.37,675.2,814,829.62,874.52c65.52,25.7,191.53,49,287.35,60.61,90.59,11,169.83,3,201.29-10.63,6.7-2.9,15.21-6,25.06-9.69,39-14.4,97.82-36.17,148.08-80.21a299.58,299.58,0,0,0,51-57.78c38.21-56.72,78.55-129.18,88-236.56,3-34-8.75-66.14-38.09-104.24-42.86-55.66-130.71-105.34-247.38-139.87-57-17.09-124.51-27.17-184-36.07-20.5-3.06-39.86-6-57.53-8.95-76.14-12.88-153.87-21.94-207.94-24.22C891.42,226.75,887.39,226.66,883.39,226.66Z"/><path class="cls-2" d="M1210.48,961.38a788.07,788.07,0,0,1-89.14-5.19c-101.6-11.67-234.71-35.25-303.09-61.61-164-63.26-277.07-121.94-345.54-179.4-60.61-50.86-87.47-102.32-82.12-157.32C398.2,477,472.91,413.72,508.81,383.3c5.81-4.92,10.39-8.81,13.46-11.73C577.94,318.51,725,195.89,886.05,203.36c56,2.58,139.56,12.53,218.12,26,17.62,3,36.73,6,57,9.09,63.25,9.75,134.93,20.82,196.25,39.22,123.14,36.55,216.69,88.85,263.39,147.28,32.7,40.91,46.06,75.87,43.33,113.35-8.58,117.65-53,196.45-90.81,252a317.83,317.83,0,0,1-54.62,61.27c-54.26,47-117,69.55-158.53,84.45-9.86,3.54-18.39,6.59-25,9.38C1312.85,954.63,1267.39,961.38,1210.48,961.38ZM871.92,208.19c-153.75,0-292.5,116.05-346.09,167.12h0c-3.18,3-7.81,6.95-13.68,11.92-35.38,30-109,92.39-116.42,171.13-10.88,111.82,120,214,424.38,331.4,67.95,26.2,200.55,49.67,301.82,61.3,95.85,11,178.79,3.05,211.19-10.5,6.78-2.84,15.36-5.92,25.29-9.48,41.16-14.77,103.36-37.08,156.89-83.49A312.52,312.52,0,0,0,1569,787.32c37.41-55,81.44-133,89.93-249.43,2.63-36.09-10.39-69.94-42.21-109.75-46-57.62-138.69-109.32-260.84-145.57-61-18.3-132.48-29.33-195.56-39.06-20.26-3.13-39.39-6.08-57-9.1-78.37-13.4-161.7-23.32-217.49-25.9C881.18,208.3,876.53,208.19,871.92,208.19Z"/><path class="cls-2" d="M1220.34,977.45a874.29,874.29,0,0,1-94-5.2C1019.23,960.61,879.51,936.83,808.71,910c-173.16-65.72-292.6-127.23-365.16-188-63.8-53.47-92.08-107.6-86.47-165.49,8-85.47,87.12-152,125.12-184,6-5,10.67-9,13.82-12h0c58.9-55.57,213.83-183.92,380.41-175.61,58.52,2.93,145.76,13.52,227.67,27.65,17.45,3,36.18,6,56,9.13,67,10.62,142.84,22.66,208.26,42.32,128.66,38.28,227,92.61,276.86,153,35.22,42.62,49.89,79.31,47.54,118.94-7.45,126-53.48,207.81-92.74,265a331.1,331.1,0,0,1-57.39,63.77c-57.61,49.47-123.73,72.51-167.48,87.76-9.92,3.46-18.49,6.45-25.2,9.17C1327.11,970.76,1279.89,977.45,1220.34,977.45ZM860.88,189.73c-158.68,0-304.63,121.15-361.22,174.55h0c-3.27,3.08-8,7.08-14.05,12.16C448.14,408,370.18,473.62,362.35,556.93,350.85,675.64,489.09,783,810.59,905c70.37,26.7,209.55,50.37,316.28,62,101.15,11,187.79,3.11,221.1-10.38,6.84-2.76,15.46-5.77,25.45-9.25,43.37-15.12,108.92-38,165.77-86.78a326.29,326.29,0,0,0,56.48-62.76c38.87-56.62,84.44-137.6,91.82-262.31,2.26-38.2-12-73.74-46.34-115.26C1591.94,360.7,1494.52,307,1366.86,269c-65.09-19.57-140.79-31.58-207.58-42.18-19.84-3.14-38.59-6.12-56.08-9.13-81.72-14.1-168.71-24.67-227-27.58C871.06,189.86,866,189.73,860.88,189.73Z"/><path class="cls-2" d="M1230.24,993.53a971.32,971.32,0,0,1-99-5.21c-112.53-11.62-258.85-35.6-332.09-63C457.83,797.71,311.16,683.49,323.56,555c8.46-90.12,91.92-160,132-193.52,6.11-5.11,10.93-9.15,14.18-12.18,77.17-72.14,231.35-191.85,397-183,61.06,3.27,152,14.5,237.22,29.33,17.11,3,35.28,5.93,54.52,9.06,70.82,11.51,151.09,24.56,220.81,45.55,134.18,40,237.29,96.34,290.32,158.61,37.74,44.34,53.71,82.75,51.76,124.54-6.35,135.79-57.08,223.71-94.68,278a345.5,345.5,0,0,1-60.16,66.3c-61,51.89-133.29,76.42-176.48,91.07-10,3.38-18.56,6.29-25.32,8.94C1341.38,986.9,1292.42,993.53,1230.24,993.53Zm-381-822.28c-157.1,0-302,113-375.82,182-3.35,3.14-8.23,7.22-14.4,12.38C419.52,398.73,337.21,467.6,329,555.5c-5.68,58.89,23.4,114.18,88.9,169C494,788.3,619.37,852.32,801.05,920.26c72.79,27.21,218.57,51.08,330.75,62.66,106.45,11,196.79,3.16,231-10.25,6.88-2.7,15.53-5.63,25.55-9,42.83-14.53,114.5-38.85,174.71-90.07a340,340,0,0,0,59.22-65.25C1662.66,750,1709.8,666,1716,533.13c1.88-40.32-13.68-77.57-50.48-120.77-52.35-61.48-154.54-117.22-287.74-156.94-69.38-20.88-149.46-33.9-220.12-45.39-19.26-3.13-37.44-6.09-54.58-9.07-85.07-14.79-175.72-26-236.58-29.25C860.76,171.4,855,171.25,849.29,171.25Z"/><path class="cls-2" d="M1240.17,1009.61c-31.77,0-66.92-1.58-104-5.22-118-11.59-270.93-35.77-346.59-63.67C598.2,870.15,465.92,803,385.19,735.47,315,676.77,283.9,617.27,290,553.55c8.88-94.78,100-170.61,138.94-203,6.26-5.21,11.2-9.32,14.53-12.41h0c51.88-48.08,104.9-88,157.59-118.62,89.74-52.17,175.88-76.32,256.06-71.76,63.65,3.61,158.21,15.49,246.78,31,16.56,2.9,34,5.79,52.44,8.86,74.87,12.43,159.73,26.52,233.94,48.9,139.75,41.76,247.64,100.1,303.79,164.28,39.72,45.41,57.51,86.76,56,130.14C1745,675,1692.49,766.05,1653.46,822a358.86,358.86,0,0,1-62.94,68.81c-64.41,54.35-140.23,79.4-185.53,94.38-10,3.29-18.58,6.14-25.38,8.72C1355.66,1003,1305,1009.61,1240.17,1009.61ZM447.28,342.23c-3.44,3.19-8.43,7.34-14.75,12.6-38.4,31.94-128.3,106.75-137,199.25-5.94,61.76,24.55,119.69,93.2,177.13,80.23,67.12,212,133.95,402.75,204.3,75.19,27.72,227.57,51.79,345.21,63.35,111.8,11,205.82,3.21,240.91-10.13,6.92-2.63,15.58-5.49,25.61-8.81,44.92-14.85,120.1-39.69,183.7-93.35a353,353,0,0,0,62-67.74c38.63-55.38,90.56-145.49,95.62-288.08,1.48-41.87-15.87-82-54.61-126.28-55.46-63.4-162.43-121.15-301.2-162.62-73.88-22.27-158.55-36.33-233.25-48.74-18.46-3.07-35.9-6-52.49-8.87-88.37-15.47-182.68-27.32-246.13-30.93C696.64,144.2,545.69,251,447.28,342.23Z"/><path class="cls-2" d="M1250.89,1025.64c-34.88,0-72.48-1.69-109.78-5.18-123.48-11.56-283-35.94-361.1-64.36-200.5-73-339.2-142.91-424-213.82C282.65,681,250.1,618.75,256.49,552.12c9.31-99.46,105-178.67,145.88-212.49,6.39-5.29,11.44-9.47,14.86-12.61h0c149.35-137.3,298.1-205.7,430.27-197.78,66.25,4,164.47,16.49,256.33,32.68,15.83,2.79,32.51,5.61,49.78,8.54,79.09,13.38,168.73,28.54,247.66,52.37,145.32,43.51,258,103.87,317.25,170,42.21,47.08,61.33,90.21,60.18,135.72-2.91,115.9-34.22,212.53-98.54,304.09a372.32,372.32,0,0,1-65.71,71.33c-67.86,56.82-147.21,82.4-194.62,97.69-10,3.21-18.58,6-25.41,8.51C1367.06,1020.23,1313.37,1025.64,1250.89,1025.64ZM826.75,134.31c-125.4,0-265.15,67.72-405.67,196.9-3.52,3.24-8.63,7.46-15.09,12.8-40.32,33.38-134.75,111.53-143.84,208.65-6.19,64.63,25.7,125.22,97.5,185.25C444,808.4,582.09,878,782,950.76c77.61,28.24,236.57,52.51,359.68,64,117.16,11,214.86,3.27,250.83-10,6.94-2.56,15.6-5.35,25.63-8.59,47-15.16,125.7-40.53,192.71-96.63a366.81,366.81,0,0,0,64.7-70.24c63.65-90.6,94.63-186.24,97.52-301,1.1-44-17.56-85.85-58.74-131.79-58.56-65.31-170.31-125.08-314.65-168.3-78.59-23.73-168.05-38.86-247-52.21-17.28-2.93-34-5.75-49.82-8.55-91.66-16.15-189.63-28.65-255.68-32.6Q837,134.31,826.75,134.31Z"/><path class="cls-2" d="M1260.93,1041.72c-36.41,0-75.77-1.69-114.9-5.19-119.53-10.68-289.61-34.13-375.6-65C560.81,896.14,415.7,823.39,326.79,749.1c-76.53-64-110.5-128.85-103.85-198.41,9.73-104.15,110-186.73,152.82-222,6.53-5.38,11.69-9.63,15.19-12.82,158.7-144.8,309.13-213.83,446.89-205.17,68.88,4.33,170.76,17.5,265.88,34.36,14.84,2.64,30.37,5.31,46.4,8.06,83.52,14.37,178.19,30.64,262.09,56,150.94,45.27,268.39,107.65,330.72,175.63,44.69,48.74,65.15,93.65,64.4,141.32-1.92,122.1-33.85,222.87-100.48,317.12A385.65,385.65,0,0,1,1638.37,917c-71.33,59.3-154.22,85.4-203.75,101-9.95,3.13-18.54,5.84-25.39,8.29C1381.29,1036.35,1325.81,1041.72,1260.93,1041.72ZM814.67,115.81c-130,0-271,68.65-419.8,204.37h0c-3.6,3.29-8.81,7.58-15.41,13C337.21,368,238.24,449.5,228.74,551.23,214.91,695.91,387.66,827.71,772.39,966c80,28.76,245.56,53.23,374.15,64.72,122.53,11,223.91,3.32,260.72-9.88,7-2.49,15.6-5.21,25.61-8.36C1482,997,1564.2,971.13,1634.65,912.57a380.24,380.24,0,0,0,67.45-72.73c65.92-93.25,97.51-193,99.41-313.85.73-46.09-19.25-89.72-62.87-137.29-61.63-67.23-178.15-129-328.1-174-83.57-25.26-178-41.51-261.41-55.84-16-2.76-31.57-5.43-46.43-8.06-94.92-16.84-196.55-30-265.22-34.29C829.92,116.05,822.3,115.81,814.67,115.81Z"/><path class="cls-2" d="M1271,1057.8c-38,0-79.08-1.69-120.06-5.2-124.6-10.65-301.53-34.26-390.11-65.73C356.22,843.11,174.64,704.05,189.38,549.26c10.17-108.84,115-194.79,159.77-231.49,6.67-5.46,11.93-9.78,15.51-13l2,2.2-2-2.2c27.52-24.93,92-83.3,175.84-132.4,101-59.09,197.76-86.06,287.67-80.16,71.53,4.69,177.07,18.5,275.43,36,13.62,2.43,27.77,4.89,42.31,7.43,88.17,15.38,188.11,32.81,277.24,59.78,156.56,47,278.79,111.42,344.19,181.3,47.16,50.39,69,97.08,68.61,146.91-.9,128.26-33.45,233.17-102.41,330.15a399.73,399.73,0,0,1-71.25,76.36c-74.84,61.8-161.28,88.4-212.92,104.3-9.92,3-18.48,5.69-25.34,8.08C1395.52,1052.48,1338.28,1057.8,1271,1057.8ZM803.6,97.34c-133.48,0-279.66,71.15-434.94,211.82-3.69,3.34-9,7.7-15.73,13.22-44.2,36.23-147.69,121.07-157.62,227.44C180.87,701.47,361.2,838.56,762.83,981.26c88,31.28,264.37,54.79,388.62,65.41,127.92,10.94,233,3.38,270.62-9.75,7-2.43,15.57-5.08,25.54-8.15,51.22-15.77,137-42.16,210.89-103.21a393.65,393.65,0,0,0,70.19-75.21c68.22-95.94,100.41-199.76,101.31-326.74.34-48.21-21-93.59-67-142.8-64.69-69.12-186-132.93-341.55-179.67-88.8-26.87-188.55-44.27-276.56-59.62-14.55-2.53-28.7-5-42.32-7.43-98.17-17.51-203.46-31.29-274.78-36Q815.77,97.34,803.6,97.34Z"/><path class="cls-2" d="M1281.11,1073.88c-39.49,0-82.41-1.69-125.26-5.2-129.68-10.62-313.46-34.39-404.61-66.42-227.85-80.07-385.81-158.4-482.89-239.48-82.88-69.22-119.69-139.53-112.53-214.95,10.59-113.54,120-202.85,166.72-241,6.8-5.55,12.17-9.93,15.83-13.23l2,2.27-2-2.27C402.93,235.52,599.4,58.7,818.5,73.66c74.19,5.06,183.39,19.52,285,37.72,12.1,2.17,24.58,4.38,37.36,6.63,93.08,16.43,198.58,35.06,293.25,63.73,114.74,34.53,269.93,95,357.65,187,49.64,52,72.78,100.51,72.83,152.51.12,132.54-34,244.8-104.35,343.17a412.59,412.59,0,0,1-74,78.87c-78.37,64.33-168.37,91.43-222.14,107.62-9.85,3-18.37,5.53-25.22,7.85C1409.77,1068.61,1350.78,1073.88,1281.11,1073.88Zm-489-995c-206,0-388.18,163.92-449.7,219.28-3.77,3.39-9.19,7.81-16.05,13.41C280.26,349.21,172.24,437.4,161.88,548.39c-7,73.29,29.14,141.88,110.37,209.72,96.52,80.6,253.85,158.58,481,238.4,90.61,31.85,273.77,55.51,403.08,66.1,117.72,9.64,235.69,5.59,280.53-9.63,7-2.36,15.52-4.94,25.43-7.92,53.33-16.06,142.6-42.94,220-106.49a407.19,407.19,0,0,0,72.94-77.71c69.57-97.3,103.33-208.39,103.21-339.63,0-50.34-22.65-97.46-71.14-148.31-86.81-91-241-151-355-185.35C1338,159,1232.69,140.41,1139.78,124c-12.78-2.26-25.27-4.46-37.37-6.64C1001,99.2,892.07,84.78,818.09,79.73Q805.06,78.85,792.14,78.86Z"/><path class="cls-2" d="M1291.24,1090c-41,0-85.77-1.69-130.51-5.21-134.76-10.58-325.39-34.51-419.1-67.1-237-82.41-401.35-163.54-502.52-248C153.05,697.78,114.82,624.76,122.25,546.4c11-118.24,125-210.92,173.68-250.5,6.92-5.63,12.39-10.07,16.13-13.42l1.26-1.13c67-59.88,270.71-242.12,495.5-226.21,76.88,5.43,189.74,20.53,294.52,39.4q15.42,2.77,31.54,5.64c98.24,17.53,209.59,37.39,310.13,67.87,118.74,35.78,279.51,98.25,371.12,192.65,52.11,53.7,76.59,103.94,77,158.1,1.14,138.58-33.62,255.09-106.28,356.2a426.67,426.67,0,0,1-76.8,81.39c-81.94,66.86-175.5,94.44-231.39,110.92-9.79,2.89-18.25,5.38-25.09,7.64C1424,1084.74,1363.28,1090,1291.24,1090ZM781,60.38C569.74,60.38,381.2,229,317.47,286l-1.26,1.13c-3.85,3.44-9.37,7.93-16.36,13.61C251.79,339.81,139.21,431.33,128.44,547c-7.22,76.17,30.29,147.44,114.65,217.88,99.19,82.82,267.61,165.89,500.58,246.91,93.15,32.4,283.15,56.22,417.55,66.78,122.52,9.62,244.67,5.63,290.44-9.5,6.94-2.3,15.44-4.8,25.28-7.71,55.45-16.34,148.25-43.7,229.22-109.77a420.35,420.35,0,0,0,75.68-80.2c71.86-100,106.24-215.31,105.11-352.51-.44-52.47-24.36-101.35-75.28-153.83-90.68-93.44-250.42-155.45-368.46-191-100.19-30.37-211.35-50.2-309.42-67.7q-16.11-2.86-31.55-5.64C997.66,81.83,885.06,66.76,808.38,61.34,799.21,60.69,790,60.38,781,60.38Z"/><path class="cls-2" d="M1301.71,1106.12c-42.76,0-89.42-1.74-136.11-5.35C1026.72,1090.55,829.82,1066.66,732,1033,489.32,949.41,313.64,863.11,209.85,776.45,120.61,702,81,626.22,88.65,544.91c11.45-122.95,130-219,180.65-260,7.05-5.71,12.61-10.22,16.43-13.61l3.09-2.75C358,207,568.56,19.7,799.11,36.56c79.59,5.82,196.11,21.56,304.08,41.08l24.74,4.46c103.69,18.66,221.22,39.8,328,72.2,122.75,37,289.12,101.52,384.59,198.33,54.58,55.34,80.39,107.35,81.25,163.7,2.18,144.58-33.21,265.35-108.21,369.22a440.77,440.77,0,0,1-79.58,83.9c-85.53,69.41-182.65,97.47-240.68,114.23-9.71,2.8-18.09,5.22-24.91,7.42C1438,1100.9,1375.69,1106.12,1301.71,1106.12ZM287.84,273.67,290,276c-3.93,3.5-9.54,8-16.65,13.8C223.29,330.35,106.17,425.21,95,545.51c-7.48,79.07,31.43,153,118.94,226.07,103.2,86.15,278.2,172.08,520.14,255.39,91,31.34,282.56,56.47,432,67.47,143.62,11.1,259.8,3.69,300.34-9.38,6.92-2.23,15.34-4.67,25.1-7.48,57.56-16.63,153.91-44.46,238.44-113.06a433.83,433.83,0,0,0,78.42-82.69c74.18-102.72,109.18-222.24,107-365.41-.82-54.6-26.06-105.23-79.41-159.33-94.53-95.85-259.86-159.88-381.91-196.71-106.41-32.29-223.75-53.4-327.26-72l-24.75-4.46C994.29,64.4,878,48.7,798.65,42.9,570.71,26.25,361.74,212.19,293.05,273.29L290,276Z"/><path class="cls-2" d="M1311.89,1122.2c-44.33,0-92.82-1.74-141.44-5.35-144-10.2-347.79-34.26-448.1-68.48-251.67-85.85-434-175-541.79-265C88.15,706.2,47.09,627.74,55,543.49,66.91,415.81,190.07,316.41,242.66,274c7.17-5.79,12.83-10.36,16.73-13.8l2.14,2.43-2.14-2.43,4.86-4.3c38.2-33.83,109.3-96.79,201.59-150.2C579.48,39.92,688.32,10.43,789.38,18,853.91,22.9,970.2,36.68,1103,60.8l16.86,3.06c104,18.85,233.52,42.31,346.92,76.76,126.77,38.3,298.74,104.79,398.06,204,56.26,56.19,84.22,111.57,85.46,169.29,3.24,150.56-32.79,275.6-110.15,382.24a453.61,453.61,0,0,1-82.34,86.42c-89.15,72-193.79,101.61-250,117.53-9.62,2.73-17.91,5.08-24.71,7.21C1452.22,1117,1388.23,1122.2,1311.89,1122.2ZM758.36,23.37c-221.77,0-422,177.32-489.81,237.35L263.68,265c-4,3.54-9.72,8.15-16.94,14-52,41.93-173.63,140.13-185.25,265.08-7.73,82,32.58,158.6,123.23,234.27,107.22,89.5,288.81,178.28,539.72,263.87,99.73,34,302.85,58,446.48,68.15,131.63,9.77,262.11,5.88,310.24-9.25,6.89-2.17,15.23-4.53,24.89-7.26,55.77-15.8,159.58-45.2,247.7-116.35a447.37,447.37,0,0,0,81.17-85.18c76.49-105.45,112.11-229.2,108.9-378.29-1.2-56-28.53-109.89-83.55-164.85C1761.9,250.94,1591,184.91,1464.91,146.82c-113.05-34.34-242.33-57.76-346.2-76.58l-16.86-3.06c-132.57-24.07-248.58-37.83-313-42.67Q773.58,23.35,758.36,23.37Z"/><path class="cls-2" d="M1322.1,1138.28c-45.92,0-96.25-1.74-146.81-5.35-149.16-10.19-359.83-34.42-462.61-69.17C452,975.63,263.13,883.6,151.26,790.23,55.67,710.45,13.2,629.27,21.41,542.06,33.71,409.66,161.46,306.9,216,263c7.28-5.86,13-10.48,17-14l2.18,2.49L233,249l6.58-5.8c39.59-34.91,113.28-99.91,208.11-154.56C564.31,21.5,676-8.5,779.64-.47,846.33,4.69,966.25,19.07,1102.82,44l7.76,1.42c109.86,20,246.57,44.92,367.08,81.55C1608.46,166.5,1786,235,1889.19,336.6c58.69,57.82,88,115,89.66,174.89,4.3,156.54-32.36,285.83-112.07,395.26a467.48,467.48,0,0,1-85.12,88.94c-92.78,74.56-201.13,104.66-259.34,120.84-9.51,2.64-17.72,4.92-24.48,7C1466.47,1133.16,1400.79,1138.28,1322.1,1138.28ZM746,4.85c-226.13,0-424.95,175.37-502,243.36l-6.59,5.8c-4.08,3.59-9.88,8.26-17.23,14.17C166.26,311.53,40,413.06,28,542.68,10.64,727,235.3,895.38,714.8,1057.49c102.18,34.55,312.17,58.68,461,68.84,136.52,9.75,271.16,5.91,320.14-9.13,6.85-2.1,15.1-4.39,24.66-7,57.75-16,165.25-45.91,257-119.62a460.31,460.31,0,0,0,83.92-87.67c78.82-108.21,115.06-236.17,110.81-391.19-1.6-58.07-30.28-113.8-87.7-170.35-80.88-79.68-222.24-151.62-408.8-208.06-120.15-36.52-256.66-61.39-366.35-81.37l-7.75-1.42c-136.33-24.84-256-39.2-322.51-44.35C768,5.26,757,4.85,746,4.85Z"/><path class="cls-2" d="M1332.35,1154.37c-47.5,0-99.71-1.75-152.24-5.36-154.3-10.17-371.85-34.57-477.11-69.86C203.41,911.68-30.55,735.53-12.23,540.64.5,403.51,132.84,297.39,189.35,252.08c7.4-5.93,13.25-10.62,17.3-14.16l2.22,2.54-2.22-2.54,8.25-7.25C298.73,157,521.41-38.78,769.88-19c68.87,5.47,192.44,20.46,332.74,46.12,114.85,21,257.79,47.14,385.89,86.11,134.85,40.84,318,111.36,425,215.36,61.12,59.43,91.82,118.46,93.87,180.47,5.36,162.49-31.93,296-114,408.3a481.2,481.2,0,0,1-87.89,91.44c-96.44,77.15-208.5,107.72-268.71,124.13-9.39,2.57-17.51,4.78-24.23,6.8C1480.72,1149.29,1413.39,1154.37,1332.35,1154.37ZM734.61-13.63C503.06-13.63,298.66,166,219.36,235.74L211.09,243c-4.16,3.64-10.05,8.36-17.52,14.35C137.73,302.12,7,407-5.51,541.27c-18,191.3,214.47,365.15,710.65,531.49,104.66,35.08,321.51,59.37,475.42,69.52,141.44,9.72,280.24,5.94,330-9,6.8-2,15-4.26,24.4-6.84,59.73-16.29,170.92-46.61,266.26-122.89a474.12,474.12,0,0,0,86.66-90.16c81.15-111,118-243.17,112.71-404.09-2-60.18-32-117.7-91.83-175.86C1824.92,251.86,1678.9,178,1486.55,119.7c-127.74-38.86-270.46-65-385.15-85.94-140-25.61-263.35-40.57-332.05-46Q751.89-13.65,734.61-13.63Z"/><path class="cls-2" d="M1342.62,1170.45c-49.1,0-103.19-1.75-157.7-5.36-159.44-10.15-383.87-34.72-491.62-70.54C177,922.85-64.83,741.2-45.89,539.22c13.16-141.87,150.1-251.34,208.57-298.08,7.52-6,13.45-10.76,17.58-14.35h0c3-2.64,6.34-5.53,9.89-8.65,86.26-75.58,315.38-276.37,570-255.65,71.07,5.79,198.31,21.38,342.29,47.8C1240,35.53,1373.85,61.35,1499.35,99.55c199.18,60.4,350.8,136.83,438.47,221,63.54,61,95.63,121.9,98.08,186.07C2042.33,675.09,2004.41,812.9,1920,928a494.42,494.42,0,0,1-90.66,94c-100.12,79.76-215.91,110.78-278.11,127.44-9.27,2.48-17.27,4.62-23.94,6.58C1495,1165.41,1426,1170.45,1342.62,1170.45ZM723.18-32.12c-237,0-447,184-528.49,255.44-3.57,3.12-6.87,6-9.91,8.66-4.24,3.69-10.22,8.47-17.8,14.53C109.19,292.71-26.15,400.9-39,539.86-47.54,630.55-3,715.24,97,798.76,216.29,898.31,417.64,995.63,695.48,1088c107.11,35.62,330.84,60.08,489.89,70.2,146.38,9.7,289.34,6,339.94-8.87,6.75-2,14.79-4.14,24.09-6.63,61.73-16.53,176.61-47.3,275.61-126.17a487.61,487.61,0,0,0,89.4-92.65c83.5-113.77,121-250.16,114.61-417-2.38-62.3-33.77-121.62-96-181.37-86.89-83.46-237.55-159.33-435.7-219.41C1372.19,68,1238.52,42.26,1101.16,17.06,957.43-9.32,830.46-24.88,759.56-30.65Q741.28-32.14,723.18-32.12Z"/><path class="cls-2" d="M1352.94,1186.53c-50.71,0-106.7-1.75-163.22-5.36-164.6-10.13-395.92-34.86-506.12-71.23C395.94,1015,187.23,914.43,63.28,811-41.83,723.22-88.56,633.87-79.56,537.8-66,391.19,75.57,278.37,136,230.19c7.62-6.08,13.65-10.88,17.85-14.52l2.3,2.65-2.3-2.65q5.23-4.54,11.5-10C254,128.14,489.63-77.73,750.33-56c73.26,6.09,204.16,22.29,351.84,49.47,127.87,23.54,275.4,52,408,92.42,205,62.22,361.28,140.61,451.94,226.71,66,62.65,99.43,125.35,102.29,191.67,7.51,174.36-31,316.43-117.88,434.32a507.36,507.36,0,0,1-93.43,96.48c-103.82,82.38-223.32,113.84-287.53,130.74-9.13,2.4-17,4.48-23.64,6.38C1509.23,1181.55,1438.61,1186.53,1352.94,1186.53ZM711.74-50.61c-242.54,0-458,188.37-541.76,261.53q-6.27,5.49-11.53,10.05c-4.31,3.73-10.38,8.57-18.07,14.71C80.64,283.3-59.26,394.81-72.58,538.45c-8.76,93.6,37.15,181,140.35,267.13,123.28,102.9,331.21,203.06,618,297.7,109.57,36.15,340.17,60.78,504.36,70.89,151.32,9.67,298.45,6,349.84-8.75,6.69-1.92,14.61-4,23.79-6.42,63.7-16.76,182.28-48,285-129.44a501.19,501.19,0,0,0,92.15-95.14c85.84-116.56,124-257.18,116.51-429.87-2.78-64.42-35.52-125.54-100.11-186.89-89.87-85.34-245.19-163.18-449.15-225.08C1375.88,52.29,1228.58,23.85,1100.9.35,953.47-26.78,822.84-42.95,749.75-49,737-50.1,724.33-50.61,711.74-50.61Z"/><path class="cls-2" d="M1365.28,1202.74c-52.44,0-110.86-1.79-170.78-5.49-169.74-10.11-408-35-520.62-71.92-296.65-97.16-512-200.6-639.95-307.44C-72.85,728.75-122.37,634-113.23,536.37-99.21,385,46.92,268.85,109.33,219.24c7.73-6.15,13.85-11,18.12-14.69l2.33,2.7-2.33-2.7q5.89-5.1,13.07-11.37c91.1-79.43,333.12-290.4,600-267.72,75.5,6.42,210.08,23.23,361.39,51.15,139,25.65,285.88,55,419.06,95.57,210.83,64,371.77,144.41,465.42,232.39,68.39,64.26,103.22,128.78,106.49,197.26,8.6,180.28-30.59,326.61-119.8,447.35a521.27,521.27,0,0,1-96.21,99c-107.55,85-230.78,116.9-297,134-9,2.32-16.75,4.33-23.3,6.17C1523.1,1197.78,1452.46,1202.74,1365.28,1202.74ZM700.27-69.09c-248.08,0-469.13,192.74-555,267.66-4.79,4.17-9.16,8-13.11,11.39h0c-4.38,3.78-10.54,8.67-18.34,14.87C52.08,273.87-92.38,388.72-106.12,537c-9,96.52,38.28,186.59,144.62,275.36,127.3,106.26,341.82,209.26,637.61,306.14,112,36.69,349.5,61.49,518.82,71.58,156.3,9.64,307.61,6,359.75-8.62,6.62-1.86,14.41-3.88,23.43-6.21,65.7-17,188-48.64,294.35-132.72a514.13,514.13,0,0,0,94.89-97.63c88.2-119.37,126.93-264.2,118.41-442.77-3.17-66.53-37.27-129.46-104.25-192.39-92.84-87.23-252.81-167-462.59-230.76-132.85-40.49-279.55-69.77-418.28-95.38C949.57-44.24,815.26-61,739.94-67.42,726.67-68.55,713.41-69.09,700.27-69.09Z"/><path class="cls-2" d="M1375.7,1218.82c-54.06,0-114.41-1.79-176.42-5.48-174.9-10.1-420-35.17-535.12-72.61C358.51,1041.32,136.59,935,4.56,824.81-105.34,733.06-156.31,635.54-146.92,535c14.45-156.1,165.19-275.62,229.56-326.66,7.84-6.22,14-11.13,18.39-14.87l2.37,2.76L101,193.42c4.36-3.75,9.25-8,14.63-12.68C209.18,99.38,457.55-116.76,730.75-93c37.72,3.27,176,16.74,370.93,52.83,133.86,24.77,289.63,55.87,430.12,98.72,216.68,65.89,382.28,148.21,478.89,238.07,70.81,65.87,107,132.22,110.69,202.85,9.69,186.2-30.13,336.79-121.73,460.37a535,535,0,0,1-99,101.51c-111.3,87.66-238.26,120-306.47,137.32-8.83,2.25-16.45,4.19-22.93,6C1537.37,1213.91,1465.15,1218.82,1375.7,1218.82ZM688.8-87.58c-253.66,0-480.24,197.14-568.36,273.81-5.4,4.69-10.3,9-14.67,12.71S95.07,207.72,87.16,214C23.52,264.45-125.51,382.62-139.67,535.63c-9.16,98,40.94,193.47,148.9,283.6,131.31,109.62,352.41,215.46,657.18,314.58,114.47,37.23,358.83,62.19,533.3,72.26,161.32,9.61,316.77,6,369.64-8.5,6.54-1.8,14.2-3.74,23.07-6,67.68-17.22,193.66-49.28,303.75-136a527.7,527.7,0,0,0,97.64-100.12c90.55-122.17,129.9-271.22,120.31-455.66-3.57-68.65-39-133.38-108.39-197.9-95.81-89.11-260.42-170.87-476-236.44C1389.54,22.72,1234-8.33,1100.36-33.06c-154.68-28.63-292.68-46-370.24-52.74C716.29-87,702.49-87.58,688.8-87.58Z"/><path class="cls-2" d="M1386.19,1234.9c-55.7,0-118-1.79-182.14-5.48-180-10.07-432-35.31-549.62-73.29C339.77,1054.48,111.25,945.35-24.81,831.75c-113-94.38-165.45-194.71-155.81-298.22C-165.73,372.68-4.68,245.3,55.94,197.34c8-6.29,14.24-11.26,18.66-15h0c4.78-4.09,10.18-8.78,16.16-14C186.7,85,441.53-136.26,720.94-111.57c38.82,3.43,181,17.5,380.49,54.52C1236.84-31.93,1395.15-.18,1542.6,44.81c222.53,67.73,392.78,152,492.36,243.75C2108.2,356,2145.78,424.22,2149.87,497c10.75,191.64-29.7,346.49-123.66,473.38a552.61,552.61,0,0,1-101.76,104c-115.06,90.32-245.74,123-316,140.62-8.67,2.17-16.16,4-22.56,5.76C1551.65,1230,1477.89,1234.9,1386.19,1234.9ZM79.41,187.93h0c-4.52,3.87-10.85,8.88-18.87,15.22C.59,250.57-158.64,376.52-173.24,534.22c-9.41,100.93,42.13,199.12,153.18,291.84,135.32,113,363,221.66,676.77,323,116.91,37.76,368.14,62.89,547.76,72.94,169,9.73,325.1,6.29,379.55-8.37,6.46-1.74,14-3.62,22.68-5.8,69.67-17.44,199.35-49.91,313.18-139.25A545.28,545.28,0,0,0,2020.26,966c92.88-125.43,132.86-278.7,122.21-468.55-4-70.77-40.78-137.3-112.53-203.41-98.76-91-268-174.7-489.49-242.11C1393.34,7,1235.29-24.68,1100.08-49.77c-199.19-37-341-51-379.79-54.42C444-128.61,190.9,91.18,95.62,173.92,89.63,179.13,84.21,183.83,79.41,187.93Z"/><path class="cls-2" d="M1396.69,1251c-57.33,0-121.62-1.8-187.88-5.49-185.21-10-444.08-35.45-564.12-74C321,1067.64,85.9,955.66-54.19,838.69c-116.16-97-170-200.14-160.13-306.58C-199,366.5-33.18,235.65,29.24,186.39,37.3,180,43.67,175,48.16,171.18h0c5.19-4.43,11.1-9.55,17.67-15.24,98.35-85.26,359.58-311.69,645.29-286,39.92,3.58,186,18.24,390,56.19,129,24,296.9,57.6,452.24,105C1781.78,100.7,1956.7,187,2059.22,280.56c75.66,69.07,114.62,139.09,119.12,214,6.27,104.57-2.89,200.72-27.22,285.77C2130.06,854,2097,921.48,2052.75,981a566.08,566.08,0,0,1-104.53,106.55c-118.86,93-253.27,126.11-325.48,143.9-8.39,2.07-15.82,3.9-22.15,5.57C1565.92,1246.17,1490.64,1251,1396.69,1251ZM53.05,176.92h0c-4.59,3.92-11,9-19.14,15.39C-27.81,241-191.79,370.42-206.81,532.81-216.47,636.62-163.5,737.59-49.35,832.9,90,949.25,324.26,1060.76,647,1164.34c119.36,38.31,377.47,63.6,562.23,73.63,174.15,9.71,334.3,6.32,389.45-8.24,6.36-1.68,13.83-3.52,22.27-5.6,71.66-17.66,205-50.53,322.63-142.52A558.19,558.19,0,0,0,2046.7,976.49c93.92-126.43,135.68-288.42,124.11-481.44-4.38-72.9-42.54-141.23-116.67-208.92-101.71-92.86-275.62-178.54-502.95-247.79C1396.22-9,1228.54-42.53,1099.78-66.48,896.07-104.36,750.28-119,710.45-122.57,427.91-147.95,168.46,77,70.77,161.63,64.18,167.35,58.26,172.48,53.05,176.92Z"/><path class="cls-2" d="M1407.22,1267.07c-59,0-125.24-1.8-193.66-5.49-199.5-10.5-456.27-35.64-578.62-74.66C302.28,1080.81,60.54,966-83.58,845.64-202.87,746-258.2,640.06-248,530.69-232.28,360.31-61.67,226,2.55,175.43c8.16-6.43,14.61-11.5,19.17-15.37h0c5.59-4.75,12-10.29,19.15-16.49C91.18,100,184.82,19,300.28-46.12,441.19-125.56,576.1-160,701.3-148.6c41,3.75,191.1,19,399.59,57.88,120.24,22.41,299.08,58,463.29,108.16,234.25,71.42,413.82,159.63,519.3,255.12,78.08,70.67,118.41,142.52,123.32,219.63,12.77,200.7-30.14,368.73-127.52,499.42A579.23,579.23,0,0,1,1972,1100.67c-122.67,95.68-266.09,130.47-335,147.19-8.21,2-15.5,3.76-21.73,5.37C1580.21,1262.3,1503.41,1267.07,1407.22,1267.07ZM654.29-143C383.74-143,140.61,67.4,45.89,149.37c-7.18,6.22-13.6,11.78-19.21,16.54C22,169.87,15.52,175,7.3,181.46c-63.52,50-232.24,182.84-247.69,349.94-9.92,106.7,44.5,210.44,161.73,308.35,143.35,119.71,384.23,234,715.93,339.85,121.79,38.85,386.78,64.32,576.7,74.32,179.3,9.68,343.52,6.34,399.35-8.12,6.26-1.62,13.59-3.39,21.83-5.4,68.41-16.59,210.75-51.12,332.11-145.78A571.62,571.62,0,0,0,2073.13,987c96.26-129.18,138.66-295.51,126-494.35-4.77-75-44.29-145.15-120.81-214.43-104.65-94.73-283.21-182.37-516.39-253.45-163.84-50-342.4-85.59-462.46-108-208.16-38.8-357.93-54-398.88-57.77C685.11-142.37,669.63-143,654.29-143Z"/><path class="cls-2" d="M1417.81,1283.15c-60.64,0-128.91-1.8-199.5-5.48-204.91-10.49-468.33-35.79-593.13-75.36C283.52,1094,35.17,976.32-113,852.59c-122.42-102.25-179.21-211-168.78-323.32,16.19-175.14,191.57-312.93,257.59-364.8,8.27-6.49,14.8-11.62,19.42-15.53,6-5.07,12.88-11,20.63-17.72C71.13,83.48,163.59,3.57,281.66-62.88c144-81,281.89-116.11,409.81-104.23,42.15,3.91,196.22,19.77,409.14,59.55,121.57,22.71,303,59,474.35,111.32,243.56,74.31,422.81,162.05,532.77,260.79,80.49,72.28,122.2,146,127.52,225.23,13.86,206.55-29.69,379-129.45,512.44a592.44,592.44,0,0,1-110.07,111.58c-126.49,98.37-273.79,133.56-344.58,150.47-8,1.92-15.14,3.62-21.27,5.18C1594.51,1278.43,1516.23,1283.15,1417.81,1283.15ZM-2.21,151.92l2.52,3c-4.74,4-11.31,9.17-19.64,15.71C-84.64,221.92-258.1,358.19-274,530c-10.17,109.59,45.68,216.11,166,316.6C39.4,969.67,286.86,1086.85,627.54,1194.87c124.09,39.34,386.75,64.54,591.17,75,184.48,9.64,352.77,6.35,409.25-8,6.16-1.56,13.33-3.27,21.38-5.2,70.25-16.78,216.44-51.71,341.6-149a584.21,584.21,0,0,0,108.61-110.09c98.61-131.93,141.64-302.6,127.91-507.24-5.17-77.14-46-149.08-124.95-219.94-109.1-98-287.36-185.16-529.83-259.13-171-52.25-352.12-88.44-473.5-111.11-212.6-39.72-366.37-55.55-408.43-59.46C395.69-186.74,123.47,48.55,21,137.13,13.22,143.84,6.31,149.82.31,154.9Z"/><path class="cls-2" d="M1428.44,1299.23c-62.31,0-132.59-1.79-205.39-5.48-210.32-10.46-480.39-35.93-607.63-76C264.76,1107.16,9.81,986.66-142.37,859.54c-125.55-104.87-183.79-216.47-173.1-331.69,16.61-179.91,196.78-321.16,264.61-374.33,8.36-6.56,15-11.74,19.67-15.7,6.37-5.37,13.75-11.74,22.07-18.93C47.52,70,142.32-11.83,263-79.63c147.11-82.65,287.94-118.32,418.63-106,44.4,4.18,205.8,21,418.7,61.23,189.51,35.1,348.29,72.55,485.4,114.47C1835.26,66.26,2019.05,155.91,2132,256.55c82.91,73.89,126,149.38,131.73,230.82,15,212.4-29.25,389.19-131.38,525.46a605.32,605.32,0,0,1-112.84,114.09C1889.14,1228,1738,1263.58,1665.33,1280.68c-7.82,1.84-14.79,3.48-20.82,5C1608.82,1294.56,1529.05,1299.23,1428.44,1299.23ZM-28.63,140.85l2.55,3c-4.8,4.05-11.46,9.27-19.89,15.88-67.08,52.59-245.3,192.31-261.6,368.81-23.3,251.33,288,480.63,925.38,681.55,126.51,39.89,395.81,65.26,605.64,75.69,189.66,9.61,362,6.37,419.14-7.86,6.06-1.51,13.07-3.16,20.92-5,72.1-17,222.13-52.29,351.1-152.3A597.23,597.23,0,0,0,2126,1008.06c101-134.69,144.62-309.69,129.81-520.14-5.58-79.26-47.8-153-129.09-225.44-112.07-99.87-294.85-189-543.28-264.81-136.82-41.83-295.32-79.2-484.54-114.26-212.58-40.2-373.67-56.95-418-61.13C379.56-206.12,101,34.37-3.93,124.9c-8.35,7.21-15.75,13.6-22.15,19Z"/><path class="cls-2" d="M1441.42,1315.44c-64,0-137-1.84-213.64-5.6-215.72-10.44-492.45-36.08-622.13-76.73-657.92-206.28-979.18-444-954.85-706.68,17.05-184.69,202-329.4,271.63-383.87,8.47-6.63,15.16-11.86,19.92-15.86l2.59,3.09-2.59-3.09c6.74-5.68,14.6-12.45,23.51-20.13,58-50,155.16-133.78,278.46-202.94,150.22-84.26,294.05-120.52,427.47-107.77C717.14-199.8,882-182.46,1100-141.23c192.1,35.73,354.5,74.2,496.46,117.62C1852,54.46,2040.32,146,2156.21,248.55c84.14,74.43,129.88,154,135.94,236.41,16,218.24-28.81,399.41-133.32,538.48A622.23,622.23,0,0,1,2043.22,1140c-134.62,103.76-289.65,139.81-364.16,157.14-7.44,1.72-14.11,3.28-19.92,4.7C1622.71,1310.79,1543.29,1315.44,1441.42,1315.44ZM618.12-198.61c-285.95,0-536.39,215.93-647,311.29-9,7.78-16.81,14.5-23.59,20.19h0c-4.87,4.09-11.61,9.36-20.13,16-68.88,53.89-251.84,197-268.57,378.26C-365.1,785.51-45.73,1020.42,608.07,1225.4c128.95,40.43,404.88,66,620.11,76.37,194.89,9.58,371.32,6.39,429-7.73,5.83-1.43,12.54-3,20-4.73,74-17.19,227.83-53,361-155.65a614.18,614.18,0,0,0,114.1-115.08c103.3-137.45,147.61-316.79,131.72-533-6-81.39-49.57-156.94-133.24-231-115-101.75-302.32-192.75-556.72-270.48-141.67-43.33-303.78-81.73-495.59-117.4C880.87-174.46,716.28-191.78,671-196.1Q644.41-198.65,618.12-198.61Z"/><path class="cls-2" d="M1452.13,1331.52c-65.73,0-140.69-1.84-219.68-5.6-221.14-10.41-504.52-36.22-636.63-77.42C-78.63,1038.17-408,794.75-383,525c17.52-189.76,207.47-337.92,279-393.7,8.41-6.56,15.06-11.74,19.83-15.73h0c6.91-5.81,14.9-12.7,24.15-20.68C-.72,43.71,98.58-41.95,224.67-112.69c153.65-86.18,300.74-123.18,437.21-110,46.3,4.49,214.72,22.4,437.8,64.59,192,35.83,362.72,76.47,507.51,120.77,261.5,79.94,454.35,173.42,573.19,277.84,86.68,76.15,133.83,157.57,140.15,242,17.48,223.61-28,409.16-135.25,551.49a634.93,634.93,0,0,1-118.38,119.12c-138.44,106.5-297.35,142.9-373.71,160.4-7.26,1.66-13.79,3.15-19.49,4.52C1637,1326.92,1556.14,1331.52,1452.13,1331.52ZM606.33-217.11c-292.2,0-548,220.7-661,318.22-9.27,8-17.28,14.91-24.23,20.75h0c-4.88,4.07-11.57,9.29-20,15.91-70.75,55.18-258.67,201.76-275.86,388C-399.38,791.12-72,1031.65,598.26,1240.67c131.37,41,413.94,66.67,634.58,77.06,203.28,9.68,379.69,6.62,438.94-7.61,5.73-1.38,12.29-2.88,19.58-4.55,75.79-17.37,233.52-53.5,370.52-158.9a626.27,626.27,0,0,0,116.85-117.56c106-140.68,150.94-324.36,133.62-545.93C2306.19,401,2260,321.39,2175,246.71c-118-103.64-309.8-196.55-570.18-276.15-144.5-44.22-315-84.78-506.62-120.56-222.76-42.13-390.86-60-437.08-64.48C642.73-216.26,624.44-217.11,606.33-217.11Z"/><path class="cls-2" d="M1462.94,1347.65c-67.4,0-144.46-1.84-225.75-5.59-226.56-10.39-516.58-36.36-651.13-78.11-691-214.39-1028.37-463.47-1002.78-740.31,17.94-194.46,212.63-346.09,285.93-403.17,8.54-6.66,15.29-11.92,20.14-16h0c7.42-6.21,16.08-13.68,26.11-22.32C-23.76,29.78,78-57.93,206.58-129.95,363.16-217.62,513.06-255,652.05-241.11c46.25,4.44,215.23,22.36,447.34,66.27,194.5,36.43,369,78.13,518.58,123.92,267.48,81.82,464.86,177.21,586.65,283.51,89,77.7,137.59,161,144.35,247.61,18.51,229.56-27.65,419.5-137.17,564.51a647.05,647.05,0,0,1-121.16,121.63c-142.25,109.24-305,146-383.24,163.66-7.08,1.6-13.47,3-19.07,4.36C1651.33,1343.1,1569.12,1347.65,1462.94,1347.65ZM593.9-235.66c-297,0-557.71,224.76-673,324.16-10.05,8.67-18.74,16.15-26.2,22.4h0c-5,4.13-11.76,9.43-20.37,16.13-72.52,56.48-265.14,206.5-282.75,397.37C-419.62,645.55-358,763.19-225.31,874.08-61.89,1010.65,211.92,1139.14,588.52,1256c133.8,41.51,423,67.38,649.05,77.74,208.65,9.65,389,6.64,448.85-7.48,5.62-1.33,12-2.78,19.14-4.39,77.65-17.53,239.21-54,380-162.13a638.66,638.66,0,0,0,119.59-120C2313.4,896.35,2359,708.34,2340.66,480.86c-6.58-84.36-54.2-165.77-141.52-242-120.9-105.52-317.26-200.34-583.61-281.82-149.31-45.7-323.48-87.32-517.68-123.7-231.78-43.84-400.44-61.73-446.61-66.16C632-234.74,612.86-235.66,593.9-235.66Z"/><path class="cls-2" d="M1474.1,1363.71c-69.15,0-148.39-1.84-232.17-5.6-232-10.36-528.64-36.5-665.64-78.79-386.67-119.39-668.06-251.24-836.36-391.9C-398.12,772-462.18,649.16-450.45,522.2-432.08,323-232.66,167.93-157.58,109.55c8.68-6.76,15.54-12.09,20.48-16.19,7.79-6.51,17-14.4,27.58-23.54C-47.34,16.29,56.74-73.29,187.94-146.63c159.67-89.26,312.51-127.28,454.27-113,47.52,4.65,220.95,23.32,456.89,67.94,197,37,375.19,79.79,529.63,127.08,274.18,83.92,476.09,181.22,600.14,289.2,91.33,78.93,141.31,164.12,148.55,253.19,19.51,235.51-27.29,429.82-139.11,577.53a659.47,659.47,0,0,1-123.93,124.15c-146.48,112.31-313.29,149.3-393.46,167.07-6.63,1.48-12.64,2.81-18,4C1665.88,1359.2,1582.4,1363.71,1474.1,1363.71ZM582.63-254.15C279.82-254.15,13.72-25.09-104,76.23c-10.65,9.17-19.85,17.08-27.69,23.63h0c-5,4.19-11.95,9.56-20.69,16.36C-226.67,174-424,327.46-442,523c-11.45,124,51.59,244.46,187.38,357.95,167.43,139.94,447.84,271.25,833.42,390.31,136.25,42.06,432.09,68.09,663.53,78.42,214.31,9.63,398.66,6.68,458.73-7.35,5.35-1.24,11.39-2.58,18-4,79.57-17.65,245.15-54.37,390.14-165.53a651.65,651.65,0,0,0,122.33-122.54c110.52-146,156.76-338.35,137.42-571.73-7.05-86.78-56.06-170-145.66-247.48-123.16-107.2-324-203.93-597.07-287.5-154.14-47.2-332-89.88-528.72-126.85-235.6-44.56-408.71-63.2-456.16-67.84A584.42,584.42,0,0,0,582.63-254.15Z"/><path class="cls-2" d="M1487.34,1379.9c-70.85,0-152.75-1.88-240.68-5.72-237.77-10.34-541.3-36.66-680.15-79.48-395.63-121.13-683.67-255.71-856.09-400-141.13-118.09-206.6-243.9-194.6-373.94,18.79-203.88,223-362.43,299.81-422.12,8.82-6.85,15.79-12.26,20.8-16.42,8.18-6.8,17.85-15.12,29.06-24.75,63.57-54.64,170-146.09,303.79-220.77C332-254.13,487.85-292.79,632.36-278.18c48.83,4.88,226.78,24.3,466.45,69.63,199.49,37.62,381.4,81.43,540.69,130.23,279.83,85.7,486.28,184.91,613.61,294.88,93.68,80.62,145.08,167.69,152.75,258.78,20.53,241.45-26.92,440.15-141,590.55a672.47,672.47,0,0,1-126.7,126.67c-150.13,114.92-320.73,152.28-402.71,170.24-6.57,1.44-12.54,2.75-17.83,4C1679.73,1375.42,1596.73,1379.9,1487.34,1379.9Zm-916-1652.53C262.76-272.63-8.78-39.24-128.9,64c-11.24,9.66-20.94,18-29.17,24.84h0c-5.12,4.25-12.13,9.7-21,16.59-76.06,59.06-278.08,216-296.53,416.12C-487.34,648.62-422.89,772-284.06,888.12c171.54,143.54,458.56,277.56,853.1,398.36,138.07,42.58,440.76,68.78,678,79.11,219.57,9.58,407.9,6.68,468.64-7.23,5.31-1.2,11.3-2.52,17.9-4,81.38-17.83,250.71-54.92,399.32-168.67a663.85,663.85,0,0,0,125.08-125C2370.76,912,2417.64,715.34,2397.29,476.07c-7.48-88.77-57.88-173.89-149.8-253C2121.07,113.89,1915.66,15.25,1637-70.1c-159-48.7-340.59-92.44-539.76-130-239.33-45.26-417-64.65-465.72-69.52A598.07,598.07,0,0,0,571.34-272.63Z"/><path class="cls-2" d="M1497.11,1395.92c-91.06,0-199.4-2.93-313.4-8.86-283.25-14.75-517.63-43.53-627-77-404.68-123.78-699.29-261.3-875.64-408.74-144.31-120.65-211.27-249.17-199-382C-498.7,310.75-289.8,148.74-211.16,87.75c8.95-7,16-12.43,21.12-16.65,8.55-7.09,18.74-15.83,30.53-25.95,65-55.76,173.69-149.07,310.1-225.1C316.46-272.38,475.23-311.67,622.51-296.7c55.08,5.59,551.91,58.87,1027.75,204.68,224.31,68.74,403.68,146.38,533.12,230.78,156,101.73,240.46,214.16,250.92,334.16,28.43,326.32-63.24,572.85-272.45,732.75-153.78,117.54-328.16,155.28-412,173.42-6.5,1.41-12.41,2.69-17.67,3.87C1694,1391.54,1608.45,1395.92,1497.11,1395.92Zm-937-1687C245.68-291.11-31.28-53.4-153.82,51.78c-11.83,10.14-22,18.91-30.65,26-5.2,4.31-12.32,9.84-21.34,16.83C-283.63,155-490.35,315.33-509.22,520.14c-12,129.81,54,255.81,195.93,374.51,175.46,146.68,469,283.65,872.59,407.09,240.5,73.56,1025.93,105.25,1171,72.69,5.27-1.18,11.21-2.47,17.74-3.88,83.18-18,256.28-55.46,408.51-171.82,206.68-158,297.2-401.91,269-725-10.21-117.19-93.31-227.41-247-327.6-128.76-84-307.38-161.25-530.91-229.75C1172.66-229.24,676.62-282.43,621.63-288A608.62,608.62,0,0,0,560.06-291.11Z"/></g></g></svg>