<?xml version="1.0" standalone="no"?>
<!DOCTYPE svg PUBLIC "-//W3C//DTD SVG 20010904//EN"
 "http://www.w3.org/TR/2001/REC-SVG-20010904/DTD/svg10.dtd">
<svg version="1.0" xmlns="http://www.w3.org/2000/svg"
 width="1104.000000pt" height="1104.000000pt" viewBox="0 0 1104.000000 1104.000000"
 preserveAspectRatio="xMidYMid meet">
<metadata>
Created by potrace 1.14, written by Peter Selinger 2001-2017
</metadata>
<g transform="translate(0.000000,1104.000000) scale(0.100000,-0.100000)"
fill="#000000" stroke="none">
<path d="M20 8180 c-11 -11 -20 -29 -20 -40 0 -21 45 -73 86 -101 63 -43 239
-211 339 -324 79 -88 75 -84 115 -135 19 -25 40 -52 47 -60 66 -82 210 -262
231 -289 15 -19 34 -42 42 -51 8 -9 32 -38 52 -65 58 -77 74 -97 112 -140 20
-22 36 -45 36 -52 0 -6 4 -13 9 -15 5 -1 140 -167 301 -368 160 -201 296 -372
303 -380 7 -8 57 -71 112 -140 55 -69 102 -127 105 -130 3 -3 19 -23 35 -45
17 -22 32 -42 35 -45 5 -5 76 -94 92 -115 4 -5 35 -43 68 -83 33 -41 60 -77
60 -82 0 -8 -13 -26 -120 -160 -94 -119 -103 -130 -115 -144 -6 -6 -44 -54
-85 -106 -41 -52 -89 -113 -108 -135 -18 -22 -36 -44 -40 -50 -43 -57 -168
-212 -178 -221 -8 -6 -14 -15 -14 -20 0 -5 -8 -17 -17 -26 -10 -9 -23 -23 -28
-30 -6 -7 -46 -58 -90 -113 -43 -55 -113 -143 -154 -195 -41 -52 -79 -99 -85
-105 -6 -5 -24 -28 -41 -50 -16 -22 -37 -49 -46 -60 -26 -31 -231 -289 -257
-322 -12 -16 -33 -43 -47 -59 -20 -24 -196 -246 -222 -279 -25 -32 -99 -121
-104 -125 -3 -3 -27 -29 -52 -58 -26 -29 -47 -51 -47 -49 0 2 -35 -31 -77 -73
-81 -78 -174 -160 -224 -195 -38 -26 -41 -85 -7 -104 18 -9 278 -11 1103 -8
594 1 1096 6 1115 11 19 4 67 14 105 22 80 17 262 77 317 105 21 11 44 19 52
19 8 0 16 3 18 8 2 4 26 18 53 32 164 82 368 222 494 340 26 25 102 113 167
195 65 83 126 158 135 168 17 18 15 20 227 -252 118 -151 186 -223 245 -259
15 -9 27 -20 27 -24 0 -4 5 -8 11 -8 6 0 23 -8 37 -19 32 -22 111 -67 167 -94
22 -10 53 -25 68 -33 16 -8 35 -14 43 -14 8 0 14 -4 14 -8 0 -5 6 -9 13 -9 11
-1 59 -17 102 -34 38 -15 189 -57 230 -64 11 -2 21 -4 23 -5 3 -3 11 -5 62
-14 25 -5 54 -10 65 -13 11 -2 34 -6 50 -8 17 -2 48 -7 70 -10 74 -12 90 -14
185 -21 105 -9 504 -9 590 -1 78 8 161 17 190 22 14 2 45 7 70 10 55 8 224 43
265 55 17 5 55 17 85 26 164 48 365 136 495 217 69 43 167 118 183 139 7 9 18
23 25 30 7 7 32 38 56 68 81 105 96 124 106 134 22 24 123 153 140 179 l19 29
25 -30 c14 -17 44 -54 66 -82 22 -29 47 -60 56 -69 8 -9 37 -44 63 -79 51 -67
67 -84 138 -147 249 -222 629 -419 918 -479 41 -8 89 -18 105 -23 17 -4 514
-9 1106 -10 1045 -4 1076 -3 1097 15 34 30 28 64 -19 103 -22 19 -50 42 -62
52 -12 11 -42 35 -66 55 -46 38 -228 219 -270 269 -24 27 -230 284 -300 373
-19 25 -38 47 -41 50 -14 14 -90 109 -90 114 0 6 -23 36 -46 60 -6 7 -86 106
-178 221 -91 116 -176 221 -188 235 -11 14 -39 49 -61 78 -22 28 -43 52 -48
52 -5 0 -8 4 -7 9 2 4 -17 32 -42 62 -25 29 -69 85 -99 124 -30 38 -57 72 -60
75 -3 3 -22 25 -41 50 -19 25 -40 52 -47 60 -7 8 -105 132 -219 275 -113 143
-221 278 -240 300 -33 40 -43 65 -24 65 6 0 10 5 10 10 0 6 8 18 18 28 9 10
27 32 39 48 13 16 34 43 47 59 13 17 90 113 171 215 163 205 202 254 227 284
10 12 59 73 109 136 112 142 122 155 250 313 57 71 109 136 114 145 6 9 15 21
21 27 5 5 28 33 49 60 22 28 44 55 50 62 5 6 19 23 30 37 11 15 25 32 30 39 6
7 28 35 50 62 22 28 43 52 47 53 5 2 8 8 8 14 0 5 16 26 35 46 19 20 35 40 35
44 0 4 10 17 23 30 12 13 33 39 47 58 13 19 27 37 30 40 6 5 62 75 122 151 14
19 35 44 45 56 11 12 28 34 39 48 23 32 20 29 114 135 94 105 228 234 306 295
104 81 123 116 84 155 -20 20 -30 20 -1073 19 -969 -1 -1060 -3 -1152 -20
-135 -24 -149 -27 -202 -45 -25 -9 -53 -17 -62 -19 -50 -10 -336 -141 -399
-183 -15 -10 -67 -45 -117 -78 -102 -67 -245 -181 -292 -234 -27 -29 -102
-122 -206 -253 -40 -51 -77 -90 -77 -81 0 5 -11 22 -25 38 -14 16 -25 32 -25
35 0 3 -15 22 -33 41 -18 19 -44 51 -57 70 -13 19 -33 44 -43 55 -10 11 -52
63 -93 115 -120 153 -283 265 -544 373 -94 38 -328 107 -420 123 -44 8 -144
26 -167 30 -12 2 -43 6 -70 9 -26 3 -70 7 -98 10 -87 10 -547 13 -630 4 -185
-19 -240 -26 -240 -29 0 -1 -18 -4 -40 -6 -52 -7 -80 -12 -80 -14 0 -1 -13 -4
-30 -6 -16 -3 -73 -16 -125 -30 -52 -14 -99 -27 -105 -28 -5 -1 -14 -4 -20 -7
-5 -4 -22 -9 -37 -13 -15 -3 -40 -11 -55 -18 -15 -6 -30 -12 -33 -12 -64 -15
-292 -132 -395 -202 -99 -67 -110 -77 -160 -139 -21 -28 -42 -52 -45 -55 -3
-3 -39 -48 -80 -100 -41 -52 -81 -102 -89 -111 -9 -9 -25 -29 -36 -44 -11 -16
-32 -43 -47 -62 l-26 -33 -53 67 c-30 38 -58 73 -64 79 -5 7 -21 26 -35 44
-14 18 -29 37 -35 44 -5 6 -23 29 -40 51 -123 165 -521 431 -785 524 -36 13
-72 26 -80 29 -36 13 -176 49 -220 56 -19 3 -46 9 -60 13 -14 4 -510 9 -1102
10 -1073 4 -1077 4 -1098 -17z m5666 -2221 c87 -111 169 -212 182 -225 12 -13
22 -26 22 -29 0 -7 133 -169 143 -173 14 -7 7 -21 -33 -69 -22 -26 -44 -52
-48 -58 -18 -25 -198 -252 -214 -270 -10 -11 -46 -56 -80 -100 -35 -44 -67
-85 -73 -91 -5 -6 -21 -25 -34 -42 -13 -18 -27 -32 -31 -32 -4 0 -27 26 -51
58 -24 31 -46 59 -49 62 -5 4 -65 79 -244 304 -17 22 -51 65 -76 95 -25 31
-58 72 -72 91 l-27 36 55 69 c30 39 67 86 82 104 15 19 50 63 77 97 28 34 64
79 80 100 17 21 59 74 95 119 36 44 78 97 93 118 15 20 32 37 36 37 4 0 79
-91 167 -201z"/>
</g>
</svg>
