{
    "asset" : {
        "generator" : "Khronos glTF Blender I/O v3.4.50",
        "version" : "2.0"
    },
    "extensionsUsed" : [
        "KHR_materials_emissive_strength"
    ],
    "scene" : 0,
    "scenes" : [
        {
            "name" : "Scene",
            "nodes" : [
                0
            ]
        }
    ],
    "nodes" : [
        {
            "mesh" : 0,
            "name" : "Projection1",
            "rotation" : [
                0.014546209014952183,
                -0.06188678741455078,
                0.03425198048353195,
                0.9973892569541931
            ],
            "translation" : [
                0.0034084469079971313,
                0.07525098323822021,
                5.813954830169678
            ]
        }
    ],
    "materials" : [
        {
            "alphaMode" : "BLEND",
            "doubleSided" : true,
            "emissiveFactor" : [
                1,
                1,
                1
            ],
            "extensions" : {
                "KHR_materials_emissive_strength" : {
                    "emissiveStrength" : 20
                }
            },
            "name" : "Voxels",
            "pbrMetallicRoughness" : {
                "baseColorFactor" : [
                    0.800000011920929,
                    0.800000011920929,
                    0.800000011920929,
                    1
                ],
                "metallicFactor" : 0,
                "roughnessFactor" : 0.5
            }
        }
    ],
    "meshes" : [
        {
            "name" : "Cube.003",
            "primitives" : [
                {
                    "attributes" : {
                        "POSITION" : 0,
                        "TEXCOORD_0" : 1
                    },
                    "indices" : 2,
                    "material" : 0
                }
            ]
        }
    ],
    "accessors" : [
        {
            "bufferView" : 0,
            "componentType" : 5126,
            "count" : 68512,
            "max" : [
                0.7975603938102722,
                0.7656129598617554,
                0.7408381104469299
            ],
            "min" : [
                -0.8019356727600098,
                -0.7383869886398315,
                -0.7544012665748596
            ],
            "type" : "VEC3"
        },
        {
            "bufferView" : 1,
            "componentType" : 5126,
            "count" : 68512,
            "type" : "VEC2"
        },
        {
            "bufferView" : 2,
            "componentType" : 5125,
            "count" : 128460,
            "type" : "SCALAR"
        }
    ],
    "bufferViews" : [
        {
            "buffer" : 0,
            "byteLength" : 822144,
            "byteOffset" : 0,
            "target" : 34962
        },
        {
            "buffer" : 0,
            "byteLength" : 548096,
            "byteOffset" : 822144,
            "target" : 34962
        },
        {
            "buffer" : 0,
            "byteLength" : 513840,
            "byteOffset" : 1370240,
            "target" : 34963
        }
    ],
    "buffers" : [
        {
            "byteLength" : 1884080,
            "uri" : "baked.bin"
        }
    ]
}
