<svg width="32" height="26" viewBox="0 0 32 26" fill="none" xmlns="http://www.w3.org/2000/svg">
<path d="M8.14866 1.17948C13.3731 0.725331 18.627 0.72533 23.8514 1.17948L26.3685 1.39828C28.0441 1.54394 29.4792 2.54339 30.2228 3.97302C30.3179 4.15591 30.2466 4.37735 30.0713 4.48586L19.6281 10.9507C17.3883 12.3373 14.5641 12.3664 12.2962 11.0263L1.78317 4.814C1.61332 4.71363 1.53536 4.50703 1.6119 4.3252C2.29217 2.70925 3.82155 1.55562 5.6316 1.39828L8.14866 1.17948Z" fill="white"/>
<path d="M1.60335 7.61159C1.34341 7.45799 1.01174 7.62328 0.981438 7.92369C0.558546 12.1164 0.660898 16.3488 1.28849 20.5223C1.61935 22.7225 3.41503 24.4093 5.6316 24.6019L8.14866 24.8208C13.3731 25.2749 18.627 25.2749 23.8514 24.8208L26.3685 24.6019C28.585 24.4093 30.3807 22.7225 30.7116 20.5223C31.3575 16.2272 31.447 11.8697 30.9803 7.55725C30.9476 7.25472 30.6103 7.09247 30.3515 7.25264L20.9439 13.0764C17.9137 14.9523 14.0927 14.9916 11.0244 13.1786L1.60335 7.61159Z" fill="white"/>
</svg>
