<svg width="40" height="40" viewBox="0 0 40 40" fill="none" xmlns="http://www.w3.org/2000/svg">
<path d="M23.6667 4.79175C21.6223 4.79175 19.6617 5.60387 18.2161 7.04947C16.7705 8.49506 15.9583 10.4557 15.9583 12.5001V16.7917H11.8333C11.6262 16.7917 11.4583 16.9596 11.4583 17.1667V22.8334C11.4583 23.0405 11.6262 23.2084 11.8333 23.2084H15.9583V34.8334C15.9583 35.0405 16.1262 35.2084 16.3333 35.2084H22C22.2071 35.2084 22.375 35.0405 22.375 34.8334V23.2084H26.5365C26.7086 23.2084 26.8586 23.0913 26.9004 22.9244L28.317 17.2577C28.3762 17.021 28.1972 16.7917 27.9532 16.7917H22.375V12.5001C22.375 12.1575 22.5111 11.829 22.7533 11.5867C22.9956 11.3445 23.3241 11.2084 23.6667 11.2084H28C28.2071 11.2084 28.375 11.0405 28.375 10.8334V5.16675C28.375 4.95964 28.2071 4.79175 28 4.79175H23.6667Z" fill="white"/>
</svg>
