<svg width="40" height="40" viewBox="0 0 40 40" fill="none" xmlns="http://www.w3.org/2000/svg">
<path d="M20 14.5833C17.0085 14.5833 14.5833 17.0085 14.5833 20C14.5833 22.9915 17.0085 25.4167 20 25.4167C22.9915 25.4167 25.4167 22.9915 25.4167 20C25.4167 17.0085 22.9915 14.5833 20 14.5833Z" fill="white"/>
<path fill-rule="evenodd" clip-rule="evenodd" d="M11.2826 5.13578C17.0294 4.49348 22.9706 4.49348 28.7175 5.13578C31.8815 5.4894 34.4335 7.98236 34.8048 11.1574C35.492 17.0325 35.492 22.9675 34.8048 28.8425C34.4335 32.0176 31.8815 34.5106 28.7175 34.8642C22.9706 35.5065 17.0294 35.5065 11.2826 34.8642C8.11857 34.5106 5.56658 32.0176 5.19522 28.8425C4.50809 22.9675 4.50809 17.0325 5.19522 11.1574C5.56658 7.98236 8.11857 5.4894 11.2826 5.13578ZM28.3333 9.99999C27.4129 9.99999 26.6667 10.7462 26.6667 11.6667C26.6667 12.5871 27.4129 13.3333 28.3333 13.3333C29.2538 13.3333 30 12.5871 30 11.6667C30 10.7462 29.2538 9.99999 28.3333 9.99999ZM12.0833 20C12.0833 15.6277 15.6277 12.0833 20 12.0833C24.3723 12.0833 27.9167 15.6277 27.9167 20C27.9167 24.3722 24.3723 27.9167 20 27.9167C15.6277 27.9167 12.0833 24.3722 12.0833 20Z" fill="white"/>
</svg>
