<svg width="40" height="40" viewBox="0 0 40 40" fill="none" xmlns="http://www.w3.org/2000/svg">
<path fill-rule="evenodd" clip-rule="evenodd" d="M11.6481 8.15092C17.2076 7.71597 22.7925 7.71597 28.352 8.15092L32.0865 8.44309C34.1666 8.60582 35.8683 10.1648 36.2121 12.2228C37.0725 17.3719 37.0725 22.6282 36.2121 27.7773C35.8683 29.8353 34.1666 31.3943 32.0865 31.557L28.352 31.8492C22.7925 32.2841 17.2076 32.2841 11.6481 31.8492L7.91364 31.557C5.83351 31.3943 4.13181 29.8353 3.78796 27.7773C2.92761 22.6282 2.92761 17.3719 3.78796 12.2228C4.13181 10.1648 5.83351 8.60582 7.91364 8.44309L11.6481 8.15092ZM16.6667 24.117V15.8831C16.6667 15.4945 17.0907 15.2544 17.4239 15.4544L24.2854 19.5713C24.6091 19.7655 24.6091 20.2346 24.2854 20.4288L17.4239 24.5457C17.0907 24.7457 16.6667 24.5056 16.6667 24.117Z" fill="white"/>
</svg>
